M48
; DRILL file {KiCad 5.1.5+dfsg1-2build2} date Tue Apr 19 07:05:38 2022
; FORMAT={-:-/ absolute / metric / decimal}
; #@! TF.CreationDate,2022-04-19T07:05:38+00:00
; #@! TF.GenerationSoftware,Kicad,Pcbnew,5.1.5+dfsg1-2build2
FMAT,2
METRIC
T1C0.400
T2C0.900
T3C0.991
T4C1.092
T5C1.300
T6C0.900
T7C1.200
T8C1.702
T9C3.000
T10C3.429
%
G90
G05
T1
X23.887Y31.58
X24.608Y25.18
X26.951Y10.399
X32.071Y26.645
X45.0Y40.462
X46.202Y17.461
X62.275Y26.842
X62.275Y23.665
X62.275Y-14.414
X63.286Y26.106
X78.33Y36.909
X78.492Y31.782
X80.275Y15.361
X82.919Y12.602
X87.922Y23.567
X91.857Y-14.715
X98.131Y27.984
X98.275Y38.395
X98.74Y15.29
X99.571Y2.568
X99.609Y-22.906
X105.273Y-19.236
X111.595Y22.244
X113.002Y17.061
X113.328Y31.92
X114.699Y3.05
X115.35Y2.05
T3
X68.19Y4.35
X75.81Y4.35
X50.19Y11.15
X57.81Y11.15
X14.19Y-5.0
X21.81Y-5.0
X50.19Y45.15
X57.81Y45.15
X32.19Y41.75
X39.81Y41.75
X112.693Y-35.33
X120.053Y-37.302
X86.19Y31.55
X93.81Y31.55
X95.306Y-30.671
X102.666Y-32.644
X50.19Y28.15
X57.81Y28.15
X86.19Y-2.45
X93.81Y-2.45
X32.19Y24.75
X39.81Y24.75
X32.19Y7.75
X39.81Y7.75
X68.19Y38.35
X75.81Y38.35
X86.19Y14.55
X93.81Y14.55
X14.19Y29.0
X21.81Y29.0
X77.919Y-26.012
X85.279Y-27.985
X68.19Y21.35
X75.81Y21.35
X14.19Y12.0
X21.81Y12.0
T4
X104.88Y40.81
X104.88Y38.27
X104.88Y35.73
X104.88Y33.19
X104.88Y30.65
X104.88Y28.11
X104.88Y25.57
X104.88Y23.03
X104.88Y20.49
X104.88Y17.95
X104.88Y15.41
X104.88Y12.87
X104.88Y10.33
X120.12Y40.81
X120.12Y38.27
X120.12Y35.73
X120.12Y33.19
X120.12Y30.65
X120.12Y28.11
X120.12Y25.57
X120.12Y23.03
X120.12Y20.49
X120.12Y17.95
X120.12Y15.41
X120.12Y12.87
X120.12Y10.33
X102.38Y42.06
X102.38Y39.52
X102.38Y36.98
X102.38Y34.44
X102.38Y31.9
X102.38Y29.36
X102.38Y26.82
X102.38Y24.28
X102.38Y21.74
X102.38Y19.2
X102.38Y16.66
X102.38Y14.12
X102.38Y11.58
X117.62Y42.06
X117.62Y39.52
X117.62Y36.98
X117.62Y34.44
X117.62Y31.9
X117.62Y29.36
X117.62Y26.82
X117.62Y24.28
X117.62Y21.74
X117.62Y19.2
X117.62Y16.66
X117.62Y14.12
X117.62Y11.58
T5
X107.0Y5.8
X107.0Y-0.7
T6
X120.0Y4.05
X120.0Y1.05
X120.0Y4.05
X120.0Y1.05
T7
X113.4Y-10.15
X120.4Y-10.15
X113.4Y-8.15
X120.4Y-8.15
T8
X66.5Y26.35
X77.5Y26.35
X48.5Y33.15
X59.5Y33.15
X12.5Y17.0
X23.5Y17.0
X66.5Y9.35
X77.5Y9.35
X48.5Y16.15
X59.5Y16.15
X12.5Y0.0
X23.5Y0.0
X30.5Y46.75
X41.5Y46.75
X77.581Y-20.745
X88.206Y-23.593
X48.5Y50.15
X59.5Y50.15
X84.5Y19.55
X95.5Y19.55
X112.354Y-30.063
X122.98Y-32.91
X84.5Y2.55
X95.5Y2.55
X84.5Y36.55
X95.5Y36.55
X30.5Y29.75
X41.5Y29.75
X30.5Y12.75
X41.5Y12.75
X94.967Y-25.404
X105.593Y-28.251
X66.5Y43.35
X77.5Y43.35
X12.5Y34.0
X23.5Y34.0
T9
X13.0Y20.75
X18.0Y22.95
X18.0Y22.95
X23.0Y20.75
X67.0Y13.1
X72.0Y15.3
X72.0Y15.3
X77.0Y13.1
X49.0Y19.9
X54.0Y22.1
X54.0Y22.1
X59.0Y19.9
X13.0Y3.75
X18.0Y5.95
X18.0Y5.95
X23.0Y3.75
X31.0Y50.5
X36.0Y52.7
X36.0Y52.7
X41.0Y50.5
X79.034Y-17.253
X84.433Y-16.422
X84.433Y-16.422
X88.694Y-19.841
X49.0Y53.9
X54.0Y56.1
X54.0Y56.1
X59.0Y53.9
X85.0Y23.3
X90.0Y25.5
X90.0Y25.5
X95.0Y23.3
X113.808Y-26.57
X119.207Y-25.739
X119.207Y-25.739
X123.467Y-29.158
X85.0Y6.3
X90.0Y8.5
X90.0Y8.5
X95.0Y6.3
X85.0Y40.3
X90.0Y42.5
X90.0Y42.5
X95.0Y40.3
X31.0Y33.5
X36.0Y35.7
X36.0Y35.7
X41.0Y33.5
X31.0Y16.5
X36.0Y18.7
X36.0Y18.7
X41.0Y16.5
X96.421Y-21.911
X101.82Y-21.08
X101.82Y-21.08
X106.08Y-24.5
X67.0Y47.1
X72.0Y49.3
X72.0Y49.3
X77.0Y47.1
X13.0Y37.75
X18.0Y39.95
X18.0Y39.95
X23.0Y37.75
X67.0Y30.1
X72.0Y32.3
X72.0Y32.3
X77.0Y30.1
X49.0Y36.9
X54.0Y39.1
X54.0Y39.1
X59.0Y36.9
T10
X18.0Y34.0
X72.0Y26.35
X54.0Y33.15
X18.0Y17.0
X72.0Y9.35
X54.0Y16.15
X18.0Y0.0
X36.0Y46.75
X82.893Y-22.169
X54.0Y50.15
X90.0Y19.55
X117.667Y-31.486
X90.0Y2.55
X90.0Y36.55
X36.0Y29.75
X36.0Y12.75
X100.28Y-26.828
X72.0Y43.35
T2
X111.0Y-7.85G85X110.4Y-7.85
G05
X112.1Y-12.45G85X111.5Y-12.45
G05
X116.1Y-12.45G85X115.5Y-12.45
G05
X119.1Y-12.45G85X118.5Y-12.45
G05
X111.0Y-10.45G85X110.4Y-10.45
G05
X112.1Y-5.85G85X111.5Y-5.85
G05
X116.1Y-5.85G85X115.5Y-5.85
G05
X119.1Y-5.85G85X118.5Y-5.85
G05
T0
M30
