G04 #@! TF.GenerationSoftware,KiCad,Pcbnew,5.1.5+dfsg1-2build2*
G04 #@! TF.CreationDate,2022-04-19T07:05:38+00:00*
G04 #@! TF.ProjectId,board,626f6172-642e-46b6-9963-61645f706362,v1.0.0*
G04 #@! TF.SameCoordinates,Original*
G04 #@! TF.FileFunction,Copper,L1,Top*
G04 #@! TF.FilePolarity,Positive*
%FSLAX46Y46*%
G04 Gerber Fmt 4.6, Leading zero omitted, Abs format (unit mm)*
G04 Created by KiCad (PCBNEW 5.1.5+dfsg1-2build2) date 2022-04-19 07:05:38*
%MOMM*%
%LPD*%
G04 APERTURE LIST*
G04 #@! TA.AperFunction,Profile*
%ADD10C,0.150000*%
G04 #@! TD*
G04 #@! TA.AperFunction,SMDPad,CuDef*
%ADD11R,2.600000X2.600000*%
G04 #@! TD*
G04 #@! TA.AperFunction,SMDPad,CuDef*
%ADD12R,0.900000X1.200000*%
G04 #@! TD*
G04 #@! TA.AperFunction,ComponentPad*
%ADD13C,1.905000*%
G04 #@! TD*
G04 #@! TA.AperFunction,ComponentPad*
%ADD14R,1.778000X1.778000*%
G04 #@! TD*
G04 #@! TA.AperFunction,SMDPad,CuDef*
%ADD15C,0.350000*%
G04 #@! TD*
G04 #@! TA.AperFunction,ComponentPad*
%ADD16C,0.350000*%
G04 #@! TD*
G04 #@! TA.AperFunction,ComponentPad*
%ADD17R,1.752600X1.752600*%
G04 #@! TD*
G04 #@! TA.AperFunction,ComponentPad*
%ADD18C,1.752600*%
G04 #@! TD*
G04 #@! TA.AperFunction,SMDPad,CuDef*
%ADD19R,1.500000X1.500000*%
G04 #@! TD*
G04 #@! TA.AperFunction,ComponentPad*
%ADD20O,2.200000X1.600000*%
G04 #@! TD*
G04 #@! TA.AperFunction,SMDPad,CuDef*
%ADD21R,1.143000X0.635000*%
G04 #@! TD*
G04 #@! TA.AperFunction,WasherPad*
%ADD22C,1.000000*%
G04 #@! TD*
G04 #@! TA.AperFunction,SMDPad,CuDef*
%ADD23R,1.250000X0.900000*%
G04 #@! TD*
G04 #@! TA.AperFunction,SMDPad,CuDef*
%ADD24R,0.900000X0.900000*%
G04 #@! TD*
G04 #@! TA.AperFunction,ComponentPad*
%ADD25C,2.000000*%
G04 #@! TD*
G04 #@! TA.AperFunction,ViaPad*
%ADD26C,0.800000*%
G04 #@! TD*
G04 #@! TA.AperFunction,Conductor*
%ADD27C,0.250000*%
G04 #@! TD*
G04 #@! TA.AperFunction,Conductor*
%ADD28C,0.500000*%
G04 #@! TD*
G04 APERTURE END LIST*
D10*
X10000000Y-9500000D02*
X26000000Y-9500000D01*
X8000000Y-7500000D02*
X8000000Y41500000D01*
X10000000Y-9500000D02*
G75*
G02X8000000Y-7500000I0J2000000D01*
G01*
X26000000Y43500000D02*
X10000000Y43500000D01*
X8000000Y41500000D02*
G75*
G02X10000000Y43500000I2000000J0D01*
G01*
X44000000Y56250000D02*
X28000000Y56250000D01*
X26000000Y54250000D02*
G75*
G02X28000000Y56250000I2000000J0D01*
G01*
X26000000Y54250000D02*
X26000000Y43500000D01*
X64000000Y52850000D02*
X64000000Y57650000D01*
X62000000Y59650000D02*
G75*
G02X64000000Y57650000I0J-2000000D01*
G01*
X62000000Y59650000D02*
X46000000Y59650000D01*
X44000000Y57650000D02*
G75*
G02X46000000Y59650000I2000000J0D01*
G01*
X44000000Y57650000D02*
X44000000Y56250000D01*
X82000000Y46050000D02*
X82000000Y50850000D01*
X80000000Y52850000D02*
G75*
G02X82000000Y50850000I0J-2000000D01*
G01*
X80000000Y52850000D02*
X64000000Y52850000D01*
X98000000Y46050000D02*
G75*
G02X99994367Y44200000I0J-2000000D01*
G01*
X98000000Y46050000D02*
X82000000Y46050000D01*
X72707107Y-29274745D02*
X122935250Y-42733335D01*
X72707107Y-29274745D02*
G75*
G02X72197860Y-29059141I517638J1931852D01*
G01*
X125384739Y-41319122D02*
G75*
G02X122935250Y-42733335I-1931851J517638D01*
G01*
X125384740Y-41319122D02*
X129267025Y-26830234D01*
X127852812Y-24380745D02*
G75*
G02X129267025Y-26830234I-517638J-1931851D01*
G01*
X122000000Y-20297692D02*
X127852812Y-24380745D01*
X72197860Y-29059141D02*
X26000000Y-9500000D01*
X122000000Y-20297692D02*
X122000000Y42200000D01*
X120000000Y44200000D02*
G75*
G02X122000000Y42200000I0J-2000000D01*
G01*
X120000000Y44200000D02*
X99994367Y44200000D01*
X29050000Y29750000D02*
G75*
G03X29050000Y29750000I-2050000J0D01*
G01*
X29050000Y0D02*
G75*
G03X29050000Y0I-2050000J0D01*
G01*
X83050000Y36550000D02*
G75*
G03X83050000Y36550000I-2050000J0D01*
G01*
X74050000Y-8670000D02*
G75*
G03X74050000Y-8670000I-2050000J0D01*
G01*
X110153958Y-28924179D02*
G75*
G03X110153958Y-28924179I-2050000J0D01*
G01*
D11*
G04 #@! TO.P,S1,1*
G04 #@! TO.N,pinky_bottom*
X21275000Y5950000D03*
G04 #@! TO.P,S1,2*
G04 #@! TO.N,P20*
X9725000Y3750000D03*
G04 #@! TD*
D12*
G04 #@! TO.P,D1,1*
G04 #@! TO.N,P6*
X16350000Y-5000000D03*
G04 #@! TO.P,D1,2*
G04 #@! TO.N,pinky_bottom*
X19650000Y-5000000D03*
D13*
G04 #@! TO.P,D1,1*
X21810000Y-5000000D03*
D14*
G04 #@! TO.P,D1,2*
G04 #@! TO.N,P6*
X14190000Y-5000000D03*
G04 #@! TD*
D11*
G04 #@! TO.P,S2,1*
G04 #@! TO.N,pinky_home*
X21275000Y22950000D03*
G04 #@! TO.P,S2,2*
G04 #@! TO.N,P20*
X9725000Y20750000D03*
G04 #@! TD*
D12*
G04 #@! TO.P,D2,1*
G04 #@! TO.N,P5*
X16350000Y12000000D03*
G04 #@! TO.P,D2,2*
G04 #@! TO.N,pinky_home*
X19650000Y12000000D03*
D13*
G04 #@! TO.P,D2,1*
X21810000Y12000000D03*
D14*
G04 #@! TO.P,D2,2*
G04 #@! TO.N,P5*
X14190000Y12000000D03*
G04 #@! TD*
D11*
G04 #@! TO.P,S3,1*
G04 #@! TO.N,pinky_top*
X21275000Y39950000D03*
G04 #@! TO.P,S3,2*
G04 #@! TO.N,P20*
X9725000Y37750000D03*
G04 #@! TD*
D12*
G04 #@! TO.P,D3,1*
G04 #@! TO.N,P4*
X16350000Y29000000D03*
G04 #@! TO.P,D3,2*
G04 #@! TO.N,pinky_top*
X19650000Y29000000D03*
D13*
G04 #@! TO.P,D3,1*
X21810000Y29000000D03*
D14*
G04 #@! TO.P,D3,2*
G04 #@! TO.N,P4*
X14190000Y29000000D03*
G04 #@! TD*
D11*
G04 #@! TO.P,S4,1*
G04 #@! TO.N,ring_bottom*
X39275000Y18700000D03*
G04 #@! TO.P,S4,2*
G04 #@! TO.N,P19*
X27725000Y16500000D03*
G04 #@! TD*
D12*
G04 #@! TO.P,D4,1*
G04 #@! TO.N,P6*
X34350000Y7750000D03*
G04 #@! TO.P,D4,2*
G04 #@! TO.N,ring_bottom*
X37650000Y7750000D03*
D13*
G04 #@! TO.P,D4,1*
X39810000Y7750000D03*
D14*
G04 #@! TO.P,D4,2*
G04 #@! TO.N,P6*
X32190000Y7750000D03*
G04 #@! TD*
D11*
G04 #@! TO.P,S5,1*
G04 #@! TO.N,ring_home*
X39275000Y35700000D03*
G04 #@! TO.P,S5,2*
G04 #@! TO.N,P19*
X27725000Y33500000D03*
G04 #@! TD*
D12*
G04 #@! TO.P,D5,1*
G04 #@! TO.N,P5*
X34350000Y24750000D03*
G04 #@! TO.P,D5,2*
G04 #@! TO.N,ring_home*
X37650000Y24750000D03*
D13*
G04 #@! TO.P,D5,1*
X39810000Y24750000D03*
D14*
G04 #@! TO.P,D5,2*
G04 #@! TO.N,P5*
X32190000Y24750000D03*
G04 #@! TD*
D11*
G04 #@! TO.P,S6,1*
G04 #@! TO.N,ring_top*
X39275000Y52700000D03*
G04 #@! TO.P,S6,2*
G04 #@! TO.N,P19*
X27725000Y50500000D03*
G04 #@! TD*
D12*
G04 #@! TO.P,D6,1*
G04 #@! TO.N,P4*
X34350000Y41750000D03*
G04 #@! TO.P,D6,2*
G04 #@! TO.N,ring_top*
X37650000Y41750000D03*
D13*
G04 #@! TO.P,D6,1*
X39810000Y41750000D03*
D14*
G04 #@! TO.P,D6,2*
G04 #@! TO.N,P4*
X32190000Y41750000D03*
G04 #@! TD*
D11*
G04 #@! TO.P,S7,1*
G04 #@! TO.N,middle_bottom*
X57275000Y22100000D03*
G04 #@! TO.P,S7,2*
G04 #@! TO.N,P18*
X45725000Y19900000D03*
G04 #@! TD*
D12*
G04 #@! TO.P,D7,1*
G04 #@! TO.N,P6*
X52350000Y11150000D03*
G04 #@! TO.P,D7,2*
G04 #@! TO.N,middle_bottom*
X55650000Y11150000D03*
D13*
G04 #@! TO.P,D7,1*
X57810000Y11150000D03*
D14*
G04 #@! TO.P,D7,2*
G04 #@! TO.N,P6*
X50190000Y11150000D03*
G04 #@! TD*
D11*
G04 #@! TO.P,S8,1*
G04 #@! TO.N,middle_home*
X57275000Y39100000D03*
G04 #@! TO.P,S8,2*
G04 #@! TO.N,P18*
X45725000Y36900000D03*
G04 #@! TD*
D12*
G04 #@! TO.P,D8,1*
G04 #@! TO.N,P5*
X52350000Y28150000D03*
G04 #@! TO.P,D8,2*
G04 #@! TO.N,middle_home*
X55650000Y28150000D03*
D13*
G04 #@! TO.P,D8,1*
X57810000Y28150000D03*
D14*
G04 #@! TO.P,D8,2*
G04 #@! TO.N,P5*
X50190000Y28150000D03*
G04 #@! TD*
D11*
G04 #@! TO.P,S9,1*
G04 #@! TO.N,middle_top*
X57275000Y56100000D03*
G04 #@! TO.P,S9,2*
G04 #@! TO.N,P18*
X45725000Y53900000D03*
G04 #@! TD*
D12*
G04 #@! TO.P,D9,1*
G04 #@! TO.N,P4*
X52350000Y45150000D03*
G04 #@! TO.P,D9,2*
G04 #@! TO.N,middle_top*
X55650000Y45150000D03*
D13*
G04 #@! TO.P,D9,1*
X57810000Y45150000D03*
D14*
G04 #@! TO.P,D9,2*
G04 #@! TO.N,P4*
X50190000Y45150000D03*
G04 #@! TD*
D11*
G04 #@! TO.P,S10,1*
G04 #@! TO.N,index_bottom*
X75275000Y15300000D03*
G04 #@! TO.P,S10,2*
G04 #@! TO.N,P15*
X63725000Y13100000D03*
G04 #@! TD*
D12*
G04 #@! TO.P,D10,1*
G04 #@! TO.N,P6*
X70350000Y4350000D03*
G04 #@! TO.P,D10,2*
G04 #@! TO.N,index_bottom*
X73650000Y4350000D03*
D13*
G04 #@! TO.P,D10,1*
X75810000Y4350000D03*
D14*
G04 #@! TO.P,D10,2*
G04 #@! TO.N,P6*
X68190000Y4350000D03*
G04 #@! TD*
D11*
G04 #@! TO.P,S11,1*
G04 #@! TO.N,index_home*
X75275000Y32300000D03*
G04 #@! TO.P,S11,2*
G04 #@! TO.N,P15*
X63725000Y30100000D03*
G04 #@! TD*
D12*
G04 #@! TO.P,D11,1*
G04 #@! TO.N,P5*
X70350000Y21350000D03*
G04 #@! TO.P,D11,2*
G04 #@! TO.N,index_home*
X73650000Y21350000D03*
D13*
G04 #@! TO.P,D11,1*
X75810000Y21350000D03*
D14*
G04 #@! TO.P,D11,2*
G04 #@! TO.N,P5*
X68190000Y21350000D03*
G04 #@! TD*
D11*
G04 #@! TO.P,S12,1*
G04 #@! TO.N,index_top*
X75275000Y49300000D03*
G04 #@! TO.P,S12,2*
G04 #@! TO.N,P15*
X63725000Y47100000D03*
G04 #@! TD*
D12*
G04 #@! TO.P,D12,1*
G04 #@! TO.N,P4*
X70350000Y38350000D03*
G04 #@! TO.P,D12,2*
G04 #@! TO.N,index_top*
X73650000Y38350000D03*
D13*
G04 #@! TO.P,D12,1*
X75810000Y38350000D03*
D14*
G04 #@! TO.P,D12,2*
G04 #@! TO.N,P4*
X68190000Y38350000D03*
G04 #@! TD*
D11*
G04 #@! TO.P,S13,1*
G04 #@! TO.N,inner_bottom*
X93275000Y8500000D03*
G04 #@! TO.P,S13,2*
G04 #@! TO.N,P14*
X81725000Y6300000D03*
G04 #@! TD*
D12*
G04 #@! TO.P,D13,1*
G04 #@! TO.N,P6*
X88350000Y-2450000D03*
G04 #@! TO.P,D13,2*
G04 #@! TO.N,inner_bottom*
X91650000Y-2450000D03*
D13*
G04 #@! TO.P,D13,1*
X93810000Y-2450000D03*
D14*
G04 #@! TO.P,D13,2*
G04 #@! TO.N,P6*
X86190000Y-2450000D03*
G04 #@! TD*
D11*
G04 #@! TO.P,S14,1*
G04 #@! TO.N,inner_home*
X93275000Y25500000D03*
G04 #@! TO.P,S14,2*
G04 #@! TO.N,P14*
X81725000Y23300000D03*
G04 #@! TD*
D12*
G04 #@! TO.P,D14,1*
G04 #@! TO.N,P5*
X88350000Y14550000D03*
G04 #@! TO.P,D14,2*
G04 #@! TO.N,inner_home*
X91650000Y14550000D03*
D13*
G04 #@! TO.P,D14,1*
X93810000Y14550000D03*
D14*
G04 #@! TO.P,D14,2*
G04 #@! TO.N,P5*
X86190000Y14550000D03*
G04 #@! TD*
D11*
G04 #@! TO.P,S15,1*
G04 #@! TO.N,inner_top*
X93275000Y42500000D03*
G04 #@! TO.P,S15,2*
G04 #@! TO.N,P14*
X81725000Y40300000D03*
G04 #@! TD*
D12*
G04 #@! TO.P,D15,1*
G04 #@! TO.N,P4*
X88350000Y31550000D03*
G04 #@! TO.P,D15,2*
G04 #@! TO.N,inner_top*
X91650000Y31550000D03*
D13*
G04 #@! TO.P,D15,1*
X93810000Y31550000D03*
D14*
G04 #@! TO.P,D15,2*
G04 #@! TO.N,P4*
X86190000Y31550000D03*
G04 #@! TD*
G04 #@! TA.AperFunction,SMDPad,CuDef*
D15*
G04 #@! TO.P,S16,1*
G04 #@! TO.N,near_thumb*
G36*
X86004512Y-18188613D02*
G01*
X86677441Y-15677206D01*
X89188848Y-16350135D01*
X88515919Y-18861542D01*
X86004512Y-18188613D01*
G37*
G04 #@! TD.AperFunction*
G04 #@! TA.AperFunction,SMDPad,CuDef*
G04 #@! TO.P,S16,2*
G04 #@! TO.N,P18*
G36*
X74278667Y-17324290D02*
G01*
X74951596Y-14812883D01*
X77463003Y-15485812D01*
X76790074Y-17997219D01*
X74278667Y-17324290D01*
G37*
G04 #@! TD.AperFunction*
G04 #@! TD*
G04 #@! TA.AperFunction,SMDPad,CuDef*
G04 #@! TO.P,D16,1*
G04 #@! TO.N,P7*
G36*
X79415464Y-27034637D02*
G01*
X79726047Y-25875526D01*
X80595380Y-26108463D01*
X80284797Y-27267574D01*
X79415464Y-27034637D01*
G37*
G04 #@! TD.AperFunction*
G04 #@! TA.AperFunction,SMDPad,CuDef*
G04 #@! TO.P,D16,2*
G04 #@! TO.N,near_thumb*
G36*
X82603020Y-27888737D02*
G01*
X82913603Y-26729626D01*
X83782936Y-26962563D01*
X83472353Y-28121674D01*
X82603020Y-27888737D01*
G37*
G04 #@! TD.AperFunction*
D13*
G04 #@! TO.P,D16,1*
X85279377Y-27984702D03*
G04 #@! TA.AperFunction,ComponentPad*
D16*
G04 #@! TO.P,D16,2*
G04 #@! TO.N,P7*
G36*
X76830225Y-26641116D02*
G01*
X77290405Y-24923700D01*
X79007821Y-25383880D01*
X78547641Y-27101296D01*
X76830225Y-26641116D01*
G37*
G04 #@! TD.AperFunction*
G04 #@! TD*
G04 #@! TA.AperFunction,SMDPad,CuDef*
D15*
G04 #@! TO.P,S17,1*
G04 #@! TO.N,home_thumb*
G36*
X103391212Y-22847313D02*
G01*
X104064141Y-20335906D01*
X106575548Y-21008835D01*
X105902619Y-23520242D01*
X103391212Y-22847313D01*
G37*
G04 #@! TD.AperFunction*
G04 #@! TA.AperFunction,SMDPad,CuDef*
G04 #@! TO.P,S17,2*
G04 #@! TO.N,P15*
G36*
X91665367Y-21982990D02*
G01*
X92338296Y-19471583D01*
X94849703Y-20144512D01*
X94176774Y-22655919D01*
X91665367Y-21982990D01*
G37*
G04 #@! TD.AperFunction*
G04 #@! TD*
G04 #@! TA.AperFunction,SMDPad,CuDef*
G04 #@! TO.P,D17,1*
G04 #@! TO.N,P7*
G36*
X96802164Y-31693437D02*
G01*
X97112747Y-30534326D01*
X97982080Y-30767263D01*
X97671497Y-31926374D01*
X96802164Y-31693437D01*
G37*
G04 #@! TD.AperFunction*
G04 #@! TA.AperFunction,SMDPad,CuDef*
G04 #@! TO.P,D17,2*
G04 #@! TO.N,home_thumb*
G36*
X99989720Y-32547537D02*
G01*
X100300303Y-31388426D01*
X101169636Y-31621363D01*
X100859053Y-32780474D01*
X99989720Y-32547537D01*
G37*
G04 #@! TD.AperFunction*
D13*
G04 #@! TO.P,D17,1*
X102666077Y-32643502D03*
G04 #@! TA.AperFunction,ComponentPad*
D16*
G04 #@! TO.P,D17,2*
G04 #@! TO.N,P7*
G36*
X94216925Y-31299916D02*
G01*
X94677105Y-29582500D01*
X96394521Y-30042680D01*
X95934341Y-31760096D01*
X94216925Y-31299916D01*
G37*
G04 #@! TD.AperFunction*
G04 #@! TD*
G04 #@! TA.AperFunction,SMDPad,CuDef*
D15*
G04 #@! TO.P,S18,1*
G04 #@! TO.N,far_thumb*
G36*
X120778212Y-27506113D02*
G01*
X121451141Y-24994706D01*
X123962548Y-25667635D01*
X123289619Y-28179042D01*
X120778212Y-27506113D01*
G37*
G04 #@! TD.AperFunction*
G04 #@! TA.AperFunction,SMDPad,CuDef*
G04 #@! TO.P,S18,2*
G04 #@! TO.N,P14*
G36*
X109052367Y-26641790D02*
G01*
X109725296Y-24130383D01*
X112236703Y-24803312D01*
X111563774Y-27314719D01*
X109052367Y-26641790D01*
G37*
G04 #@! TD.AperFunction*
G04 #@! TD*
G04 #@! TA.AperFunction,SMDPad,CuDef*
G04 #@! TO.P,D18,1*
G04 #@! TO.N,P7*
G36*
X114189264Y-36352137D02*
G01*
X114499847Y-35193026D01*
X115369180Y-35425963D01*
X115058597Y-36585074D01*
X114189264Y-36352137D01*
G37*
G04 #@! TD.AperFunction*
G04 #@! TA.AperFunction,SMDPad,CuDef*
G04 #@! TO.P,D18,2*
G04 #@! TO.N,far_thumb*
G36*
X117376820Y-37206237D02*
G01*
X117687403Y-36047126D01*
X118556736Y-36280063D01*
X118246153Y-37439174D01*
X117376820Y-37206237D01*
G37*
G04 #@! TD.AperFunction*
D13*
G04 #@! TO.P,D18,1*
X120053177Y-37302202D03*
G04 #@! TA.AperFunction,ComponentPad*
D16*
G04 #@! TO.P,D18,2*
G04 #@! TO.N,P7*
G36*
X111604025Y-35958616D02*
G01*
X112064205Y-34241200D01*
X113781621Y-34701380D01*
X113321441Y-36418796D01*
X111604025Y-35958616D01*
G37*
G04 #@! TD.AperFunction*
G04 #@! TD*
D17*
G04 #@! TO.P,MCU1,1*
G04 #@! TO.N,RAW*
X117620000Y39520000D03*
D18*
G04 #@! TO.P,MCU1,2*
G04 #@! TO.N,GND*
X117620000Y36980000D03*
G04 #@! TO.P,MCU1,3*
G04 #@! TO.N,RST*
X117620000Y34440000D03*
G04 #@! TO.P,MCU1,4*
G04 #@! TO.N,VCC*
X117620000Y31900000D03*
G04 #@! TO.P,MCU1,5*
G04 #@! TO.N,P21*
X117620000Y29360000D03*
G04 #@! TO.P,MCU1,6*
G04 #@! TO.N,P20*
X117620000Y26820000D03*
G04 #@! TO.P,MCU1,7*
G04 #@! TO.N,P19*
X117620000Y24280000D03*
G04 #@! TO.P,MCU1,8*
G04 #@! TO.N,P18*
X117620000Y21740000D03*
G04 #@! TO.P,MCU1,9*
G04 #@! TO.N,P15*
X117620000Y19200000D03*
G04 #@! TO.P,MCU1,10*
G04 #@! TO.N,P14*
X117620000Y16660000D03*
G04 #@! TO.P,MCU1,11*
G04 #@! TO.N,P16*
X117620000Y14120000D03*
G04 #@! TO.P,MCU1,12*
G04 #@! TO.N,P10*
X117620000Y11580000D03*
G04 #@! TO.P,MCU1,13*
G04 #@! TO.N,P1*
X102380000Y39520000D03*
G04 #@! TO.P,MCU1,14*
G04 #@! TO.N,P0*
X102380000Y36980000D03*
G04 #@! TO.P,MCU1,15*
G04 #@! TO.N,GND*
X102380000Y34440000D03*
G04 #@! TO.P,MCU1,16*
X102380000Y31900000D03*
G04 #@! TO.P,MCU1,17*
G04 #@! TO.N,P2*
X102380000Y29360000D03*
G04 #@! TO.P,MCU1,18*
G04 #@! TO.N,P3*
X102380000Y26820000D03*
G04 #@! TO.P,MCU1,19*
G04 #@! TO.N,P4*
X102380000Y24280000D03*
G04 #@! TO.P,MCU1,20*
G04 #@! TO.N,P5*
X102380000Y21740000D03*
G04 #@! TO.P,MCU1,21*
G04 #@! TO.N,P6*
X102380000Y19200000D03*
G04 #@! TO.P,MCU1,22*
G04 #@! TO.N,P7*
X102380000Y16660000D03*
G04 #@! TO.P,MCU1,23*
G04 #@! TO.N,P8*
X102380000Y14120000D03*
G04 #@! TO.P,MCU1,24*
G04 #@! TO.N,P9*
X102380000Y11580000D03*
G04 #@! TA.AperFunction,ComponentPad*
D16*
G04 #@! TO.P,MCU1,25*
G04 #@! TO.N,Bplus*
G36*
X118031756Y42808194D02*
G01*
X118068159Y42802794D01*
X118103857Y42793853D01*
X118138506Y42781455D01*
X118171774Y42765720D01*
X118203339Y42746801D01*
X118232897Y42724879D01*
X118260165Y42700165D01*
X118284879Y42672897D01*
X118306801Y42643339D01*
X118325720Y42611774D01*
X118341455Y42578506D01*
X118353853Y42543857D01*
X118362794Y42508159D01*
X118368194Y42471756D01*
X118370000Y42435000D01*
X118370000Y41685000D01*
X118368194Y41648244D01*
X118362794Y41611841D01*
X118353853Y41576143D01*
X118341455Y41541494D01*
X118325720Y41508226D01*
X118306801Y41476661D01*
X118284879Y41447103D01*
X118260165Y41419835D01*
X118232897Y41395121D01*
X118203339Y41373199D01*
X118171774Y41354280D01*
X118138506Y41338545D01*
X118103857Y41326147D01*
X118068159Y41317206D01*
X118031756Y41311806D01*
X117995000Y41310000D01*
X117245000Y41310000D01*
X117208244Y41311806D01*
X117171841Y41317206D01*
X117136143Y41326147D01*
X117101494Y41338545D01*
X117068226Y41354280D01*
X117036661Y41373199D01*
X117007103Y41395121D01*
X116979835Y41419835D01*
X116955121Y41447103D01*
X116933199Y41476661D01*
X116914280Y41508226D01*
X116898545Y41541494D01*
X116886147Y41576143D01*
X116877206Y41611841D01*
X116871806Y41648244D01*
X116870000Y41685000D01*
X116870000Y42435000D01*
X116871806Y42471756D01*
X116877206Y42508159D01*
X116886147Y42543857D01*
X116898545Y42578506D01*
X116914280Y42611774D01*
X116933199Y42643339D01*
X116955121Y42672897D01*
X116979835Y42700165D01*
X117007103Y42724879D01*
X117036661Y42746801D01*
X117068226Y42765720D01*
X117101494Y42781455D01*
X117136143Y42793853D01*
X117171841Y42802794D01*
X117208244Y42808194D01*
X117245000Y42810000D01*
X117995000Y42810000D01*
X118031756Y42808194D01*
G37*
G04 #@! TD.AperFunction*
G04 #@! TA.AperFunction,ComponentPad*
G04 #@! TO.N,Bminus*
G36*
X102791756Y42808194D02*
G01*
X102828159Y42802794D01*
X102863857Y42793853D01*
X102898506Y42781455D01*
X102931774Y42765720D01*
X102963339Y42746801D01*
X102992897Y42724879D01*
X103020165Y42700165D01*
X103044879Y42672897D01*
X103066801Y42643339D01*
X103085720Y42611774D01*
X103101455Y42578506D01*
X103113853Y42543857D01*
X103122794Y42508159D01*
X103128194Y42471756D01*
X103130000Y42435000D01*
X103130000Y41685000D01*
X103128194Y41648244D01*
X103122794Y41611841D01*
X103113853Y41576143D01*
X103101455Y41541494D01*
X103085720Y41508226D01*
X103066801Y41476661D01*
X103044879Y41447103D01*
X103020165Y41419835D01*
X102992897Y41395121D01*
X102963339Y41373199D01*
X102931774Y41354280D01*
X102898506Y41338545D01*
X102863857Y41326147D01*
X102828159Y41317206D01*
X102791756Y41311806D01*
X102755000Y41310000D01*
X102005000Y41310000D01*
X101968244Y41311806D01*
X101931841Y41317206D01*
X101896143Y41326147D01*
X101861494Y41338545D01*
X101828226Y41354280D01*
X101796661Y41373199D01*
X101767103Y41395121D01*
X101739835Y41419835D01*
X101715121Y41447103D01*
X101693199Y41476661D01*
X101674280Y41508226D01*
X101658545Y41541494D01*
X101646147Y41576143D01*
X101637206Y41611841D01*
X101631806Y41648244D01*
X101630000Y41685000D01*
X101630000Y42435000D01*
X101631806Y42471756D01*
X101637206Y42508159D01*
X101646147Y42543857D01*
X101658545Y42578506D01*
X101674280Y42611774D01*
X101693199Y42643339D01*
X101715121Y42672897D01*
X101739835Y42700165D01*
X101767103Y42724879D01*
X101796661Y42746801D01*
X101828226Y42765720D01*
X101861494Y42781455D01*
X101896143Y42793853D01*
X101931841Y42802794D01*
X101968244Y42808194D01*
X102005000Y42810000D01*
X102755000Y42810000D01*
X102791756Y42808194D01*
G37*
G04 #@! TD.AperFunction*
G04 #@! TD*
D17*
G04 #@! TO.P,MCU2,1*
G04 #@! TO.N,RAW*
X104880000Y38270000D03*
D18*
G04 #@! TO.P,MCU2,2*
G04 #@! TO.N,GND*
X104880000Y35730000D03*
G04 #@! TO.P,MCU2,3*
G04 #@! TO.N,RST*
X104880000Y33190000D03*
G04 #@! TO.P,MCU2,4*
G04 #@! TO.N,VCC*
X104880000Y30650000D03*
G04 #@! TO.P,MCU2,5*
G04 #@! TO.N,P21*
X104880000Y28110000D03*
G04 #@! TO.P,MCU2,6*
G04 #@! TO.N,P20*
X104880000Y25570000D03*
G04 #@! TO.P,MCU2,7*
G04 #@! TO.N,P19*
X104880000Y23030000D03*
G04 #@! TO.P,MCU2,8*
G04 #@! TO.N,P18*
X104880000Y20490000D03*
G04 #@! TO.P,MCU2,9*
G04 #@! TO.N,P15*
X104880000Y17950000D03*
G04 #@! TO.P,MCU2,10*
G04 #@! TO.N,P14*
X104880000Y15410000D03*
G04 #@! TO.P,MCU2,11*
G04 #@! TO.N,P16*
X104880000Y12870000D03*
G04 #@! TO.P,MCU2,12*
G04 #@! TO.N,P10*
X104880000Y10330000D03*
G04 #@! TO.P,MCU2,13*
G04 #@! TO.N,P1*
X120120000Y38270000D03*
G04 #@! TO.P,MCU2,14*
G04 #@! TO.N,P0*
X120120000Y35730000D03*
G04 #@! TO.P,MCU2,15*
G04 #@! TO.N,GND*
X120120000Y33190000D03*
G04 #@! TO.P,MCU2,16*
X120120000Y30650000D03*
G04 #@! TO.P,MCU2,17*
G04 #@! TO.N,P2*
X120120000Y28110000D03*
G04 #@! TO.P,MCU2,18*
G04 #@! TO.N,P3*
X120120000Y25570000D03*
G04 #@! TO.P,MCU2,19*
G04 #@! TO.N,P4*
X120120000Y23030000D03*
G04 #@! TO.P,MCU2,20*
G04 #@! TO.N,P5*
X120120000Y20490000D03*
G04 #@! TO.P,MCU2,21*
G04 #@! TO.N,P6*
X120120000Y17950000D03*
G04 #@! TO.P,MCU2,22*
G04 #@! TO.N,P7*
X120120000Y15410000D03*
G04 #@! TO.P,MCU2,23*
G04 #@! TO.N,P8*
X120120000Y12870000D03*
G04 #@! TO.P,MCU2,24*
G04 #@! TO.N,P9*
X120120000Y10330000D03*
G04 #@! TA.AperFunction,ComponentPad*
D16*
G04 #@! TO.P,MCU2,25*
G04 #@! TO.N,Bplus*
G36*
X105291756Y41558194D02*
G01*
X105328159Y41552794D01*
X105363857Y41543853D01*
X105398506Y41531455D01*
X105431774Y41515720D01*
X105463339Y41496801D01*
X105492897Y41474879D01*
X105520165Y41450165D01*
X105544879Y41422897D01*
X105566801Y41393339D01*
X105585720Y41361774D01*
X105601455Y41328506D01*
X105613853Y41293857D01*
X105622794Y41258159D01*
X105628194Y41221756D01*
X105630000Y41185000D01*
X105630000Y40435000D01*
X105628194Y40398244D01*
X105622794Y40361841D01*
X105613853Y40326143D01*
X105601455Y40291494D01*
X105585720Y40258226D01*
X105566801Y40226661D01*
X105544879Y40197103D01*
X105520165Y40169835D01*
X105492897Y40145121D01*
X105463339Y40123199D01*
X105431774Y40104280D01*
X105398506Y40088545D01*
X105363857Y40076147D01*
X105328159Y40067206D01*
X105291756Y40061806D01*
X105255000Y40060000D01*
X104505000Y40060000D01*
X104468244Y40061806D01*
X104431841Y40067206D01*
X104396143Y40076147D01*
X104361494Y40088545D01*
X104328226Y40104280D01*
X104296661Y40123199D01*
X104267103Y40145121D01*
X104239835Y40169835D01*
X104215121Y40197103D01*
X104193199Y40226661D01*
X104174280Y40258226D01*
X104158545Y40291494D01*
X104146147Y40326143D01*
X104137206Y40361841D01*
X104131806Y40398244D01*
X104130000Y40435000D01*
X104130000Y41185000D01*
X104131806Y41221756D01*
X104137206Y41258159D01*
X104146147Y41293857D01*
X104158545Y41328506D01*
X104174280Y41361774D01*
X104193199Y41393339D01*
X104215121Y41422897D01*
X104239835Y41450165D01*
X104267103Y41474879D01*
X104296661Y41496801D01*
X104328226Y41515720D01*
X104361494Y41531455D01*
X104396143Y41543853D01*
X104431841Y41552794D01*
X104468244Y41558194D01*
X104505000Y41560000D01*
X105255000Y41560000D01*
X105291756Y41558194D01*
G37*
G04 #@! TD.AperFunction*
G04 #@! TA.AperFunction,ComponentPad*
G04 #@! TO.N,Bminus*
G36*
X120531756Y41558194D02*
G01*
X120568159Y41552794D01*
X120603857Y41543853D01*
X120638506Y41531455D01*
X120671774Y41515720D01*
X120703339Y41496801D01*
X120732897Y41474879D01*
X120760165Y41450165D01*
X120784879Y41422897D01*
X120806801Y41393339D01*
X120825720Y41361774D01*
X120841455Y41328506D01*
X120853853Y41293857D01*
X120862794Y41258159D01*
X120868194Y41221756D01*
X120870000Y41185000D01*
X120870000Y40435000D01*
X120868194Y40398244D01*
X120862794Y40361841D01*
X120853853Y40326143D01*
X120841455Y40291494D01*
X120825720Y40258226D01*
X120806801Y40226661D01*
X120784879Y40197103D01*
X120760165Y40169835D01*
X120732897Y40145121D01*
X120703339Y40123199D01*
X120671774Y40104280D01*
X120638506Y40088545D01*
X120603857Y40076147D01*
X120568159Y40067206D01*
X120531756Y40061806D01*
X120495000Y40060000D01*
X119745000Y40060000D01*
X119708244Y40061806D01*
X119671841Y40067206D01*
X119636143Y40076147D01*
X119601494Y40088545D01*
X119568226Y40104280D01*
X119536661Y40123199D01*
X119507103Y40145121D01*
X119479835Y40169835D01*
X119455121Y40197103D01*
X119433199Y40226661D01*
X119414280Y40258226D01*
X119398545Y40291494D01*
X119386147Y40326143D01*
X119377206Y40361841D01*
X119371806Y40398244D01*
X119370000Y40435000D01*
X119370000Y41185000D01*
X119371806Y41221756D01*
X119377206Y41258159D01*
X119386147Y41293857D01*
X119398545Y41328506D01*
X119414280Y41361774D01*
X119433199Y41393339D01*
X119455121Y41422897D01*
X119479835Y41450165D01*
X119507103Y41474879D01*
X119536661Y41496801D01*
X119568226Y41515720D01*
X119601494Y41531455D01*
X119636143Y41543853D01*
X119671841Y41552794D01*
X119708244Y41558194D01*
X119745000Y41560000D01*
X120495000Y41560000D01*
X120531756Y41558194D01*
G37*
G04 #@! TD.AperFunction*
G04 #@! TD*
D19*
G04 #@! TO.P,PAD1,1*
G04 #@! TO.N,Braw*
X113000000Y18550000D03*
G04 #@! TD*
G04 #@! TO.P,PAD2,1*
G04 #@! TO.N,Bminus*
X113000000Y21550000D03*
G04 #@! TD*
D20*
G04 #@! TO.P,TRRS1,1*
G04 #@! TO.N,N/C*
X110700000Y-7850000D03*
G04 #@! TO.P,TRRS1,2*
G04 #@! TO.N,VCC*
X111800000Y-12450000D03*
G04 #@! TO.P,TRRS1,3*
G04 #@! TO.N,GND*
X115800000Y-12450000D03*
G04 #@! TO.P,TRRS1,4*
G04 #@! TO.N,P0*
X118800000Y-12450000D03*
G04 #@! TD*
G04 #@! TO.P,TRRS2,1*
G04 #@! TO.N,N/C*
X110700000Y-10450000D03*
G04 #@! TO.P,TRRS2,2*
G04 #@! TO.N,VCC*
X111800000Y-5850000D03*
G04 #@! TO.P,TRRS2,3*
G04 #@! TO.N,GND*
X115800000Y-5850000D03*
G04 #@! TO.P,TRRS2,4*
G04 #@! TO.N,P0*
X118800000Y-5850000D03*
G04 #@! TD*
D21*
G04 #@! TO.P,J2,1*
G04 #@! TO.N,Braw*
X113500000Y3050380D03*
G04 #@! TO.P,J2,2*
G04 #@! TO.N,Bplus*
X113500000Y2049620D03*
G04 #@! TD*
D22*
G04 #@! TO.P,T1,*
G04 #@! TO.N,*
X120000000Y1050000D03*
X120000000Y4050000D03*
D23*
G04 #@! TO.P,T1,1*
G04 #@! TO.N,Braw*
X117925000Y300000D03*
G04 #@! TO.P,T1,2*
G04 #@! TO.N,Bplus*
X117925000Y3300000D03*
G04 #@! TO.P,T1,3*
G04 #@! TO.N,N/C*
X117925000Y4800000D03*
D24*
G04 #@! TO.P,T1,*
G04 #@! TO.N,*
X121100000Y-1150000D03*
X118900000Y-1150000D03*
X118900000Y6250000D03*
X121100000Y6250000D03*
G04 #@! TD*
D22*
G04 #@! TO.P,T2,*
G04 #@! TO.N,*
X120000000Y1050000D03*
X120000000Y4050000D03*
G04 #@! TD*
D25*
G04 #@! TO.P,B1,2*
G04 #@! TO.N,GND*
X107000000Y5800000D03*
G04 #@! TO.P,B1,1*
G04 #@! TO.N,RST*
X107000000Y-700000D03*
G04 #@! TD*
D26*
G04 #@! TO.N,P20*
X23886900Y31579800D03*
X32071300Y26645100D03*
X113327500Y31920000D03*
X24608200Y25180500D03*
G04 #@! TO.N,P5*
X26951300Y10399200D03*
X63286400Y26105600D03*
G04 #@! TO.N,P4*
X45000000Y40461600D03*
X78491600Y31782100D03*
G04 #@! TO.N,P19*
X46202000Y17460800D03*
G04 #@! TO.N,P18*
X62275000Y23664900D03*
X62275000Y-14414400D03*
X62275000Y26842500D03*
X91856900Y-14715200D03*
G04 #@! TO.N,P15*
X80275000Y15360800D03*
X78329800Y36908600D03*
X105273100Y-19235600D03*
G04 #@! TO.N,P14*
X98130900Y27984400D03*
X98740200Y15290000D03*
X98275000Y38395400D03*
G04 #@! TO.N,inner_home*
X87921700Y23567400D03*
G04 #@! TO.N,P7*
X82918700Y12602000D03*
G04 #@! TO.N,home_thumb*
X99608900Y-22905800D03*
G04 #@! TO.N,RST*
X99571000Y2568100D03*
G04 #@! TO.N,Bplus*
X115350000Y2049600D03*
G04 #@! TO.N,Bminus*
X111594800Y22243800D03*
G04 #@! TO.N,Braw*
X114698600Y3050400D03*
X113001800Y17060800D03*
G04 #@! TD*
D27*
G04 #@! TO.N,pinky_bottom*
X21159300Y-5000000D02*
X19650000Y-5000000D01*
X21810000Y-5000000D02*
X21159300Y-5000000D01*
X21159300Y-5000000D02*
X21159300Y5834300D01*
X21159300Y5834300D02*
X21275000Y5950000D01*
G04 #@! TO.N,P20*
X23886900Y25180500D02*
X24608200Y25180500D01*
X9725000Y25180500D02*
X23886900Y25180500D01*
X23886900Y25180500D02*
X23886900Y31579800D01*
X32071300Y26645100D02*
X31815400Y26645100D01*
X31815400Y26645100D02*
X30975600Y25805300D01*
X30975600Y25805300D02*
X30975600Y23701800D01*
X30975600Y23701800D02*
X31739000Y22938400D01*
X31739000Y22938400D02*
X42152900Y22938400D01*
X42152900Y22938400D02*
X44388200Y25173700D01*
X44388200Y25173700D02*
X63612200Y25173700D01*
X63612200Y25173700D02*
X66147300Y27708800D01*
X66147300Y27708800D02*
X67204700Y27708800D01*
X67204700Y27708800D02*
X69956200Y30460300D01*
X69956200Y30460300D02*
X69956200Y32893200D01*
X69956200Y32893200D02*
X71188400Y34125400D01*
X71188400Y34125400D02*
X87505900Y34125400D01*
X87505900Y34125400D02*
X91359200Y30272100D01*
X91359200Y30272100D02*
X95629500Y30272100D01*
X95629500Y30272100D02*
X98527400Y33170000D01*
X98527400Y33170000D02*
X103169100Y33170000D01*
X103169100Y33170000D02*
X104419100Y31920000D01*
X104419100Y31920000D02*
X113327500Y31920000D01*
X9725000Y25180500D02*
X9725000Y20750000D01*
X9725000Y37750000D02*
X9725000Y25180500D01*
X9725000Y20750000D02*
X9725000Y3750000D01*
X104880000Y25570000D02*
X116370000Y25570000D01*
X116370000Y25570000D02*
X117620000Y26820000D01*
G04 #@! TO.N,P6*
X50190000Y11150000D02*
X48975700Y11150000D01*
X48975700Y11150000D02*
X44229900Y6404200D01*
X44229900Y6404200D02*
X36471100Y6404200D01*
X36471100Y6404200D02*
X35125300Y7750000D01*
X52350000Y11150000D02*
X50190000Y11150000D01*
X34350000Y7750000D02*
X35125300Y7750000D01*
X14190000Y-5000000D02*
X16350000Y-5000000D01*
X32190000Y7750000D02*
X34350000Y7750000D01*
X52350000Y11150000D02*
X53125300Y11150000D01*
X68190000Y4350000D02*
X59925300Y4350000D01*
X59925300Y4350000D02*
X53125300Y11150000D01*
X70350000Y4350000D02*
X68190000Y4350000D01*
X70350000Y4350000D02*
X71125300Y4350000D01*
X86190000Y-2450000D02*
X77925300Y-2450000D01*
X77925300Y-2450000D02*
X71125300Y4350000D01*
X88350000Y-2450000D02*
X86190000Y-2450000D01*
X102380000Y19200000D02*
X106130000Y19200000D01*
X106130000Y19200000D02*
X106782000Y19852000D01*
X106782000Y19852000D02*
X116368900Y19852000D01*
X116368900Y19852000D02*
X116986900Y20470000D01*
X116986900Y20470000D02*
X118081000Y20470000D01*
X118081000Y20470000D02*
X120120000Y18431000D01*
X120120000Y18431000D02*
X120120000Y17950000D01*
G04 #@! TO.N,pinky_home*
X21810000Y12000000D02*
X20425300Y12000000D01*
X19650000Y12000000D02*
X20425300Y12000000D01*
X21275000Y22950000D02*
X20425300Y22100300D01*
X20425300Y22100300D02*
X20425300Y12000000D01*
G04 #@! TO.N,P5*
X53125300Y28150000D02*
X55169700Y26105600D01*
X55169700Y26105600D02*
X63286400Y26105600D01*
X50190000Y28150000D02*
X45122500Y28150000D01*
X45122500Y28150000D02*
X40408900Y23436400D01*
X40408900Y23436400D02*
X36438900Y23436400D01*
X36438900Y23436400D02*
X35125300Y24750000D01*
X16350000Y12000000D02*
X17125300Y12000000D01*
X26951300Y10399200D02*
X18726100Y10399200D01*
X18726100Y10399200D02*
X17125300Y12000000D01*
X34350000Y24750000D02*
X35125300Y24750000D01*
X52350000Y28150000D02*
X50190000Y28150000D01*
X102380000Y21740000D02*
X97362900Y16722900D01*
X97362900Y16722900D02*
X91298100Y16722900D01*
X91298100Y16722900D02*
X91298100Y16722800D01*
X91298100Y16722800D02*
X89125300Y14550000D01*
X52350000Y28150000D02*
X53125300Y28150000D01*
X84975700Y14550000D02*
X81565400Y17960300D01*
X81565400Y17960300D02*
X72186900Y17960300D01*
X72186900Y17960300D02*
X69404300Y20742900D01*
X69404300Y20742900D02*
X69404300Y21350000D01*
X14190000Y12000000D02*
X16350000Y12000000D01*
X32190000Y24750000D02*
X34350000Y24750000D01*
X86190000Y14550000D02*
X84975700Y14550000D01*
X70350000Y21350000D02*
X69404300Y21350000D01*
X68190000Y21350000D02*
X69404300Y21350000D01*
X102380000Y21740000D02*
X109250600Y21740000D01*
X109250600Y21740000D02*
X110540600Y23030000D01*
X110540600Y23030000D02*
X118061000Y23030000D01*
X118061000Y23030000D02*
X120120000Y20971000D01*
X120120000Y20971000D02*
X120120000Y20490000D01*
X86190000Y14550000D02*
X88350000Y14550000D01*
X88350000Y14550000D02*
X89125300Y14550000D01*
G04 #@! TO.N,pinky_top*
X21159300Y29000000D02*
X19650000Y29000000D01*
X21810000Y29000000D02*
X21159300Y29000000D01*
X21159300Y29000000D02*
X21159300Y39834300D01*
X21159300Y39834300D02*
X21275000Y39950000D01*
G04 #@! TO.N,P4*
X35125300Y41750000D02*
X36413700Y40461600D01*
X36413700Y40461600D02*
X45000000Y40461600D01*
X34350000Y41750000D02*
X35125300Y41750000D01*
X102380000Y24280000D02*
X102380000Y24811900D01*
X102380000Y24811900D02*
X98418800Y28773100D01*
X98418800Y28773100D02*
X91902200Y28773100D01*
X91902200Y28773100D02*
X89125300Y31550000D01*
X86190000Y31550000D02*
X78723700Y31550000D01*
X78723700Y31550000D02*
X78491600Y31782100D01*
X88350000Y31550000D02*
X86190000Y31550000D01*
X102380000Y24280000D02*
X115716900Y24280000D01*
X115716900Y24280000D02*
X116950600Y25513700D01*
X116950600Y25513700D02*
X118164600Y25513700D01*
X118164600Y25513700D02*
X120120000Y23558300D01*
X120120000Y23558300D02*
X120120000Y23030000D01*
X14190000Y29000000D02*
X16350000Y29000000D01*
X32190000Y41750000D02*
X34350000Y41750000D01*
X52350000Y45150000D02*
X50190000Y45150000D01*
X52350000Y45150000D02*
X53125300Y45150000D01*
X68190000Y38350000D02*
X66975700Y38350000D01*
X66975700Y38350000D02*
X62805400Y42520300D01*
X62805400Y42520300D02*
X55755000Y42520300D01*
X55755000Y42520300D02*
X53125300Y45150000D01*
X70350000Y38350000D02*
X68190000Y38350000D01*
X88350000Y31550000D02*
X89125300Y31550000D01*
G04 #@! TO.N,ring_bottom*
X39275000Y18700000D02*
X39121100Y18546100D01*
X39121100Y18546100D02*
X39121100Y8438900D01*
X39121100Y8438900D02*
X39810000Y7750000D01*
X39810000Y7750000D02*
X37650000Y7750000D01*
G04 #@! TO.N,P19*
X42179200Y22319400D02*
X42179200Y20385700D01*
X42179200Y20385700D02*
X45104100Y17460800D01*
X45104100Y17460800D02*
X46202000Y17460800D01*
X42179200Y22319400D02*
X44252400Y24392600D01*
X44252400Y24392600D02*
X68893600Y24392600D01*
X68893600Y24392600D02*
X73220500Y20065700D01*
X73220500Y20065700D02*
X79772100Y20065700D01*
X79772100Y20065700D02*
X81164100Y21457700D01*
X81164100Y21457700D02*
X88514900Y21457700D01*
X88514900Y21457700D02*
X88673200Y21616000D01*
X88673200Y21616000D02*
X90818900Y21616000D01*
X90818900Y21616000D02*
X91018900Y21416000D01*
X91018900Y21416000D02*
X98583000Y21416000D01*
X98583000Y21416000D02*
X100197000Y23030000D01*
X100197000Y23030000D02*
X104880000Y23030000D01*
X31721100Y22319400D02*
X42179200Y22319400D01*
X27725000Y33500000D02*
X28418500Y33500000D01*
X28418500Y33500000D02*
X31687000Y30231500D01*
X31687000Y30231500D02*
X31687000Y27312700D01*
X31687000Y27312700D02*
X30525300Y26151000D01*
X30525300Y26151000D02*
X30525300Y23515200D01*
X30525300Y23515200D02*
X31721100Y22319400D01*
X27725000Y18125300D02*
X31721100Y22121400D01*
X31721100Y22121400D02*
X31721100Y22319400D01*
X27725000Y16500000D02*
X27725000Y18125300D01*
X27725000Y50500000D02*
X27725000Y33500000D01*
X117620000Y24280000D02*
X116820300Y23480300D01*
X116820300Y23480300D02*
X105330300Y23480300D01*
X105330300Y23480300D02*
X104880000Y23030000D01*
G04 #@! TO.N,ring_home*
X39275000Y35700000D02*
X39121100Y35546100D01*
X39121100Y35546100D02*
X39121100Y25438900D01*
X39121100Y25438900D02*
X39810000Y24750000D01*
X39810000Y24750000D02*
X37650000Y24750000D01*
G04 #@! TO.N,ring_top*
X39121100Y41750000D02*
X37650000Y41750000D01*
X39810000Y41750000D02*
X39121100Y41750000D01*
X39275000Y52700000D02*
X39121100Y52546100D01*
X39121100Y52546100D02*
X39121100Y41750000D01*
G04 #@! TO.N,middle_bottom*
X57810000Y11150000D02*
X56425300Y11150000D01*
X55650000Y11150000D02*
X56425300Y11150000D01*
X57275000Y22100000D02*
X56425300Y21250300D01*
X56425300Y21250300D02*
X56425300Y11150000D01*
G04 #@! TO.N,P18*
X45725000Y19900000D02*
X49767300Y23942300D01*
X49767300Y23942300D02*
X61997600Y23942300D01*
X61997600Y23942300D02*
X62275000Y23664900D01*
X76404200Y-14414400D02*
X62275000Y-14414400D01*
X91856900Y-14715200D02*
X89799900Y-14715200D01*
X89799900Y-14715200D02*
X89659600Y-14574900D01*
X89659600Y-14574900D02*
X77180600Y-14574900D01*
X77180600Y-14574900D02*
X77020100Y-14414400D01*
X77020100Y-14414400D02*
X76404200Y-14414400D01*
X45725000Y53900000D02*
X45725000Y52274700D01*
X45725000Y36900000D02*
X45725000Y38525300D01*
X45725000Y38525300D02*
X45725300Y38525600D01*
X45725300Y38525600D02*
X45725300Y52274400D01*
X45725300Y52274400D02*
X45725000Y52274700D01*
X45725000Y36900000D02*
X48036100Y34588900D01*
X48036100Y34588900D02*
X48818300Y34588900D01*
X48818300Y34588900D02*
X53684900Y29722300D01*
X53684900Y29722300D02*
X53684900Y28552300D01*
X53684900Y28552300D02*
X55394700Y26842500D01*
X55394700Y26842500D02*
X62275000Y26842500D01*
X75870800Y-16405100D02*
X76404200Y-14414400D01*
X104880000Y20490000D02*
X104895400Y20474600D01*
X104895400Y20474600D02*
X116354600Y20474600D01*
X116354600Y20474600D02*
X117620000Y21740000D01*
G04 #@! TO.N,middle_home*
X57810000Y28150000D02*
X56425300Y28150000D01*
X55650000Y28150000D02*
X56425300Y28150000D01*
X57275000Y39100000D02*
X56425300Y38250300D01*
X56425300Y38250300D02*
X56425300Y28150000D01*
G04 #@! TO.N,middle_top*
X57810000Y45150000D02*
X56425300Y45150000D01*
X55650000Y45150000D02*
X56425300Y45150000D01*
X57275000Y56100000D02*
X56425300Y55250300D01*
X56425300Y55250300D02*
X56425300Y45150000D01*
G04 #@! TO.N,index_bottom*
X75810000Y4350000D02*
X74425300Y4350000D01*
X73650000Y4350000D02*
X74425300Y4350000D01*
X75275000Y15300000D02*
X74425300Y14450300D01*
X74425300Y14450300D02*
X74425300Y4350000D01*
G04 #@! TO.N,P15*
X71125400Y36908600D02*
X78329800Y36908600D01*
X104880000Y17950000D02*
X99736600Y17950000D01*
X99736600Y17950000D02*
X97614500Y15827900D01*
X97614500Y15827900D02*
X91199500Y15827900D01*
X91199500Y15827900D02*
X88707200Y13335600D01*
X88707200Y13335600D02*
X82300200Y13335600D01*
X82300200Y13335600D02*
X80275000Y15360800D01*
X80275000Y15360800D02*
X78474200Y17161600D01*
X78474200Y17161600D02*
X67786600Y17161600D01*
X67786600Y17161600D02*
X63725000Y13100000D01*
X63725000Y30100000D02*
X70533600Y36908600D01*
X70533600Y36908600D02*
X71125400Y36908600D01*
X63725000Y47100000D02*
X66036100Y44788900D01*
X66036100Y44788900D02*
X66740700Y44788900D01*
X66740700Y44788900D02*
X71125400Y40404200D01*
X71125400Y40404200D02*
X71125400Y36908600D01*
X93790900Y-19073100D02*
X94406800Y-19073100D01*
X94406800Y-19073100D02*
X94569300Y-19235600D01*
X94569300Y-19235600D02*
X105273100Y-19235600D01*
X93257500Y-21063800D02*
X93790900Y-19073100D01*
X117620000Y19200000D02*
X116196700Y19200000D01*
X116196700Y19200000D02*
X113292700Y16296000D01*
X113292700Y16296000D02*
X112713000Y16296000D01*
X112713000Y16296000D02*
X111059000Y17950000D01*
X111059000Y17950000D02*
X104880000Y17950000D01*
G04 #@! TO.N,index_home*
X75275000Y32300000D02*
X75161600Y32186600D01*
X75161600Y32186600D02*
X75161600Y21998400D01*
X75161600Y21998400D02*
X75810000Y21350000D01*
X75810000Y21350000D02*
X73650000Y21350000D01*
G04 #@! TO.N,index_top*
X75810000Y38350000D02*
X74425300Y38350000D01*
X73650000Y38350000D02*
X74425300Y38350000D01*
X75275000Y49300000D02*
X74425300Y48450300D01*
X74425300Y48450300D02*
X74425300Y38350000D01*
G04 #@! TO.N,inner_bottom*
X93810000Y-2450000D02*
X92425300Y-2450000D01*
X91650000Y-2450000D02*
X92425300Y-2450000D01*
X93275000Y8500000D02*
X92425300Y7650300D01*
X92425300Y7650300D02*
X92425300Y-2450000D01*
G04 #@! TO.N,P14*
X81725000Y6300000D02*
X86435200Y11010200D01*
X86435200Y11010200D02*
X94460400Y11010200D01*
X94460400Y11010200D02*
X98740200Y15290000D01*
X98130900Y27984400D02*
X86409400Y27984400D01*
X86409400Y27984400D02*
X81725000Y23300000D01*
X104880000Y15410000D02*
X98860200Y15410000D01*
X98860200Y15410000D02*
X98740200Y15290000D01*
X111177900Y-23731900D02*
X111153600Y-23731900D01*
X111153600Y-23731900D02*
X86473500Y948200D01*
X86473500Y948200D02*
X84409000Y948200D01*
X84409000Y948200D02*
X81725000Y3632200D01*
X81725000Y3632200D02*
X81725000Y6300000D01*
X80912400Y40300000D02*
X84945300Y44332900D01*
X84945300Y44332900D02*
X94513100Y44332900D01*
X94513100Y44332900D02*
X98275000Y40571000D01*
X98275000Y40571000D02*
X98275000Y38395400D01*
X81725000Y40300000D02*
X80912400Y40300000D01*
X110644500Y-25722600D02*
X111177900Y-23731900D01*
X104880000Y15410000D02*
X104894600Y15395400D01*
X104894600Y15395400D02*
X116355400Y15395400D01*
X116355400Y15395400D02*
X117620000Y16660000D01*
G04 #@! TO.N,inner_home*
X93275000Y25500000D02*
X91431800Y27343200D01*
X91431800Y27343200D02*
X89236100Y27343200D01*
X89236100Y27343200D02*
X87921700Y26028800D01*
X87921700Y26028800D02*
X87921700Y23567400D01*
X93810000Y14550000D02*
X91650000Y14550000D01*
G04 #@! TO.N,inner_top*
X93810000Y31550000D02*
X92425300Y31550000D01*
X91650000Y31550000D02*
X92425300Y31550000D01*
X93275000Y42500000D02*
X92425300Y41650300D01*
X92425300Y41650300D02*
X92425300Y31550000D01*
G04 #@! TO.N,near_thumb*
X83193000Y-27425700D02*
X83486300Y-26331100D01*
X87596700Y-17269400D02*
X85450000Y-19416100D01*
X85450000Y-19416100D02*
X85450000Y-24367400D01*
X85450000Y-24367400D02*
X83486300Y-26331100D01*
X83193000Y-27425700D02*
X84181400Y-27690500D01*
X85279400Y-27984700D02*
X84475500Y-27984700D01*
X84475500Y-27984700D02*
X84181400Y-27690600D01*
X84181400Y-27690600D02*
X84181400Y-27690500D01*
G04 #@! TO.N,P7*
X82918700Y12602000D02*
X95025500Y12602000D01*
X95025500Y12602000D02*
X99083500Y16660000D01*
X99083500Y16660000D02*
X102380000Y16660000D01*
X77919000Y-26012500D02*
X79406300Y-26411000D01*
X79406300Y-26411000D02*
X79844900Y-26411000D01*
X79844900Y-26411000D02*
X80005400Y-26571500D01*
X102380000Y16660000D02*
X111393800Y16660000D01*
X111393800Y16660000D02*
X112208100Y15845700D01*
X112208100Y15845700D02*
X113743800Y15845700D01*
X113743800Y15845700D02*
X115776900Y17878800D01*
X115776900Y17878800D02*
X118132100Y17878800D01*
X118132100Y17878800D02*
X120120000Y15890900D01*
X120120000Y15890900D02*
X120120000Y15410000D01*
G04 #@! TO.N,home_thumb*
X104983400Y-21928100D02*
X104005700Y-22905800D01*
X104005700Y-22905800D02*
X99608900Y-22905800D01*
G04 #@! TO.N,far_thumb*
X117966800Y-36743200D02*
X118260100Y-35648600D01*
X122370400Y-26586900D02*
X120223700Y-28733600D01*
X120223700Y-28733600D02*
X120223700Y-33685000D01*
X120223700Y-33685000D02*
X118260100Y-35648600D01*
X117966800Y-36743200D02*
X118955200Y-37008000D01*
X120053200Y-37302200D02*
X119249300Y-37302200D01*
X119249300Y-37302200D02*
X118955200Y-37008100D01*
X118955200Y-37008100D02*
X118955200Y-37008000D01*
D28*
G04 #@! TO.N,RAW*
X117620000Y39520000D02*
X116293400Y39520000D01*
X104880000Y38270000D02*
X115043400Y38270000D01*
X115043400Y38270000D02*
X116293400Y39520000D01*
G04 #@! TO.N,GND*
X104880000Y35730000D02*
X117033800Y35730000D01*
X117033800Y35730000D02*
X117620000Y36316200D01*
X102380000Y34440000D02*
X103590000Y34440000D01*
X103590000Y34440000D02*
X104880000Y35730000D01*
X117620000Y36316200D02*
X117620000Y36980000D01*
X120120000Y33190000D02*
X120120000Y33816200D01*
X120120000Y33816200D02*
X117620000Y36316200D01*
D27*
G04 #@! TO.N,RST*
X107000000Y-700000D02*
X102839100Y-700000D01*
X102839100Y-700000D02*
X99571000Y2568100D01*
X104880000Y33190000D02*
X116370000Y33190000D01*
X116370000Y33190000D02*
X117620000Y34440000D01*
D28*
G04 #@! TO.N,VCC*
X104880000Y30650000D02*
X116370000Y30650000D01*
X116370000Y30650000D02*
X117620000Y31900000D01*
D27*
G04 #@! TO.N,P21*
X104880000Y28110000D02*
X116370000Y28110000D01*
X116370000Y28110000D02*
X117620000Y29360000D01*
G04 #@! TO.N,P16*
X117620000Y14120000D02*
X116370000Y12870000D01*
X116370000Y12870000D02*
X104880000Y12870000D01*
G04 #@! TO.N,P10*
X104880000Y10330000D02*
X116370000Y10330000D01*
X116370000Y10330000D02*
X117620000Y11580000D01*
G04 #@! TO.N,P1*
X102380000Y39520000D02*
X101250800Y40649200D01*
X101250800Y40649200D02*
X101250800Y42712100D01*
X101250800Y42712100D02*
X101725200Y43186500D01*
X101725200Y43186500D02*
X119541500Y43186500D01*
X119541500Y43186500D02*
X121217400Y41510600D01*
X121217400Y41510600D02*
X121217400Y39367400D01*
X121217400Y39367400D02*
X120120000Y38270000D01*
G04 #@! TO.N,P0*
X102380000Y36980000D02*
X115018600Y36980000D01*
X115018600Y36980000D02*
X116244600Y38206000D01*
X116244600Y38206000D02*
X118125000Y38206000D01*
X118125000Y38206000D02*
X120120000Y36211000D01*
X120120000Y36211000D02*
X120120000Y35730000D01*
G04 #@! TO.N,P2*
X102380000Y29360000D02*
X102380000Y28891200D01*
X102380000Y28891200D02*
X104370000Y26901200D01*
X104370000Y26901200D02*
X115798100Y26901200D01*
X115798100Y26901200D02*
X117006900Y28110000D01*
X117006900Y28110000D02*
X120120000Y28110000D01*
G04 #@! TO.N,P3*
X120120000Y25570000D02*
X121331800Y26781800D01*
X121331800Y26781800D02*
X121331800Y28622700D01*
X121331800Y28622700D02*
X120574500Y29380000D01*
X120574500Y29380000D02*
X119659100Y29380000D01*
X119659100Y29380000D02*
X118422000Y30617100D01*
X118422000Y30617100D02*
X117164200Y30617100D01*
X117164200Y30617100D02*
X115977700Y29430600D01*
X115977700Y29430600D02*
X104368500Y29430600D01*
X104368500Y29430600D02*
X103224300Y30574800D01*
X103224300Y30574800D02*
X101873000Y30574800D01*
X101873000Y30574800D02*
X101145600Y29847400D01*
X101145600Y29847400D02*
X101145600Y28054400D01*
X101145600Y28054400D02*
X102380000Y26820000D01*
G04 #@! TO.N,P8*
X102380000Y14120000D02*
X115716900Y14120000D01*
X115716900Y14120000D02*
X116986900Y15390000D01*
X116986900Y15390000D02*
X118081000Y15390000D01*
X118081000Y15390000D02*
X120120000Y13351000D01*
X120120000Y13351000D02*
X120120000Y12870000D01*
G04 #@! TO.N,P9*
X102380000Y11580000D02*
X115716900Y11580000D01*
X115716900Y11580000D02*
X116986900Y12850000D01*
X116986900Y12850000D02*
X118081000Y12850000D01*
X118081000Y12850000D02*
X120120000Y10811000D01*
X120120000Y10811000D02*
X120120000Y10330000D01*
D28*
G04 #@! TO.N,Bplus*
X115350000Y2049600D02*
X113500000Y2049600D01*
X117925000Y2399700D02*
X117574900Y2049600D01*
X117574900Y2049600D02*
X115350000Y2049600D01*
X117925000Y3300000D02*
X117925000Y2399700D01*
G04 #@! TO.N,Bminus*
X120120000Y40810000D02*
X120077500Y40852500D01*
X120077500Y40852500D02*
X107546900Y40852500D01*
X107546900Y40852500D02*
X106339400Y42060000D01*
X106339400Y42060000D02*
X102380000Y42060000D01*
X113000000Y21550000D02*
X111799700Y21550000D01*
X111799700Y21550000D02*
X111799700Y22038900D01*
X111799700Y22038900D02*
X111594800Y22243800D01*
G04 #@! TO.N,Braw*
X114521800Y3050400D02*
X114698600Y3050400D01*
X113500000Y3050400D02*
X114521800Y3050400D01*
X113001800Y17060800D02*
X113000000Y17062600D01*
X113000000Y17062600D02*
X113000000Y17349700D01*
X113000000Y18550000D02*
X113000000Y17349700D01*
X113500000Y3050400D02*
X112478200Y3050400D01*
X117925000Y300000D02*
X113721000Y300000D01*
X113721000Y300000D02*
X112478200Y1542800D01*
X112478200Y1542800D02*
X112478200Y3050400D01*
G04 #@! TD*
M02*
