G04 #@! TF.GenerationSoftware,KiCad,Pcbnew,5.1.5+dfsg1-2build2*
G04 #@! TF.CreationDate,2022-04-19T07:05:38+00:00*
G04 #@! TF.ProjectId,board,626f6172-642e-46b6-9963-61645f706362,v1.0.0*
G04 #@! TF.SameCoordinates,Original*
G04 #@! TF.FileFunction,Paste,Top*
G04 #@! TF.FilePolarity,Positive*
%FSLAX46Y46*%
G04 Gerber Fmt 4.6, Leading zero omitted, Abs format (unit mm)*
G04 Created by KiCad (PCBNEW 5.1.5+dfsg1-2build2) date 2022-04-19 07:05:38*
%MOMM*%
%LPD*%
G04 APERTURE LIST*
G04 #@! TA.AperFunction,Profile*
%ADD10C,0.150000*%
G04 #@! TD*
%ADD11R,2.600000X2.600000*%
%ADD12R,0.900000X1.200000*%
%ADD13C,0.350000*%
%ADD14R,1.500000X1.500000*%
%ADD15R,1.143000X0.635000*%
%ADD16R,1.250000X0.900000*%
%ADD17R,0.900000X0.900000*%
G04 APERTURE END LIST*
D10*
X10000000Y-9500000D02*
X26000000Y-9500000D01*
X8000000Y-7500000D02*
X8000000Y41500000D01*
X10000000Y-9500000D02*
G75*
G02X8000000Y-7500000I0J2000000D01*
G01*
X26000000Y43500000D02*
X10000000Y43500000D01*
X8000000Y41500000D02*
G75*
G02X10000000Y43500000I2000000J0D01*
G01*
X44000000Y56250000D02*
X28000000Y56250000D01*
X26000000Y54250000D02*
G75*
G02X28000000Y56250000I2000000J0D01*
G01*
X26000000Y54250000D02*
X26000000Y43500000D01*
X64000000Y52850000D02*
X64000000Y57650000D01*
X62000000Y59650000D02*
G75*
G02X64000000Y57650000I0J-2000000D01*
G01*
X62000000Y59650000D02*
X46000000Y59650000D01*
X44000000Y57650000D02*
G75*
G02X46000000Y59650000I2000000J0D01*
G01*
X44000000Y57650000D02*
X44000000Y56250000D01*
X82000000Y46050000D02*
X82000000Y50850000D01*
X80000000Y52850000D02*
G75*
G02X82000000Y50850000I0J-2000000D01*
G01*
X80000000Y52850000D02*
X64000000Y52850000D01*
X98000000Y46050000D02*
G75*
G02X99994367Y44200000I0J-2000000D01*
G01*
X98000000Y46050000D02*
X82000000Y46050000D01*
X72707107Y-29274745D02*
X122935250Y-42733335D01*
X72707107Y-29274745D02*
G75*
G02X72197860Y-29059141I517638J1931852D01*
G01*
X125384739Y-41319122D02*
G75*
G02X122935250Y-42733335I-1931851J517638D01*
G01*
X125384740Y-41319122D02*
X129267025Y-26830234D01*
X127852812Y-24380745D02*
G75*
G02X129267025Y-26830234I-517638J-1931851D01*
G01*
X122000000Y-20297692D02*
X127852812Y-24380745D01*
X72197860Y-29059141D02*
X26000000Y-9500000D01*
X122000000Y-20297692D02*
X122000000Y42200000D01*
X120000000Y44200000D02*
G75*
G02X122000000Y42200000I0J-2000000D01*
G01*
X120000000Y44200000D02*
X99994367Y44200000D01*
X29050000Y29750000D02*
G75*
G03X29050000Y29750000I-2050000J0D01*
G01*
X29050000Y0D02*
G75*
G03X29050000Y0I-2050000J0D01*
G01*
X83050000Y36550000D02*
G75*
G03X83050000Y36550000I-2050000J0D01*
G01*
X74050000Y-8670000D02*
G75*
G03X74050000Y-8670000I-2050000J0D01*
G01*
X110153958Y-28924179D02*
G75*
G03X110153958Y-28924179I-2050000J0D01*
G01*
D11*
G04 #@! TO.C,S1*
X21275000Y5950000D03*
X9725000Y3750000D03*
G04 #@! TD*
D12*
G04 #@! TO.C,D1*
X16350000Y-5000000D03*
X19650000Y-5000000D03*
G04 #@! TD*
D11*
G04 #@! TO.C,S2*
X21275000Y22950000D03*
X9725000Y20750000D03*
G04 #@! TD*
D12*
G04 #@! TO.C,D2*
X16350000Y12000000D03*
X19650000Y12000000D03*
G04 #@! TD*
D11*
G04 #@! TO.C,S3*
X21275000Y39950000D03*
X9725000Y37750000D03*
G04 #@! TD*
D12*
G04 #@! TO.C,D3*
X16350000Y29000000D03*
X19650000Y29000000D03*
G04 #@! TD*
D11*
G04 #@! TO.C,S4*
X39275000Y18700000D03*
X27725000Y16500000D03*
G04 #@! TD*
D12*
G04 #@! TO.C,D4*
X34350000Y7750000D03*
X37650000Y7750000D03*
G04 #@! TD*
D11*
G04 #@! TO.C,S5*
X39275000Y35700000D03*
X27725000Y33500000D03*
G04 #@! TD*
D12*
G04 #@! TO.C,D5*
X34350000Y24750000D03*
X37650000Y24750000D03*
G04 #@! TD*
D11*
G04 #@! TO.C,S6*
X39275000Y52700000D03*
X27725000Y50500000D03*
G04 #@! TD*
D12*
G04 #@! TO.C,D6*
X34350000Y41750000D03*
X37650000Y41750000D03*
G04 #@! TD*
D11*
G04 #@! TO.C,S7*
X57275000Y22100000D03*
X45725000Y19900000D03*
G04 #@! TD*
D12*
G04 #@! TO.C,D7*
X52350000Y11150000D03*
X55650000Y11150000D03*
G04 #@! TD*
D11*
G04 #@! TO.C,S8*
X57275000Y39100000D03*
X45725000Y36900000D03*
G04 #@! TD*
D12*
G04 #@! TO.C,D8*
X52350000Y28150000D03*
X55650000Y28150000D03*
G04 #@! TD*
D11*
G04 #@! TO.C,S9*
X57275000Y56100000D03*
X45725000Y53900000D03*
G04 #@! TD*
D12*
G04 #@! TO.C,D9*
X52350000Y45150000D03*
X55650000Y45150000D03*
G04 #@! TD*
D11*
G04 #@! TO.C,S10*
X75275000Y15300000D03*
X63725000Y13100000D03*
G04 #@! TD*
D12*
G04 #@! TO.C,D10*
X70350000Y4350000D03*
X73650000Y4350000D03*
G04 #@! TD*
D11*
G04 #@! TO.C,S11*
X75275000Y32300000D03*
X63725000Y30100000D03*
G04 #@! TD*
D12*
G04 #@! TO.C,D11*
X70350000Y21350000D03*
X73650000Y21350000D03*
G04 #@! TD*
D11*
G04 #@! TO.C,S12*
X75275000Y49300000D03*
X63725000Y47100000D03*
G04 #@! TD*
D12*
G04 #@! TO.C,D12*
X70350000Y38350000D03*
X73650000Y38350000D03*
G04 #@! TD*
D11*
G04 #@! TO.C,S13*
X93275000Y8500000D03*
X81725000Y6300000D03*
G04 #@! TD*
D12*
G04 #@! TO.C,D13*
X88350000Y-2450000D03*
X91650000Y-2450000D03*
G04 #@! TD*
D11*
G04 #@! TO.C,S14*
X93275000Y25500000D03*
X81725000Y23300000D03*
G04 #@! TD*
D12*
G04 #@! TO.C,D14*
X88350000Y14550000D03*
X91650000Y14550000D03*
G04 #@! TD*
D11*
G04 #@! TO.C,S15*
X93275000Y42500000D03*
X81725000Y40300000D03*
G04 #@! TD*
D12*
G04 #@! TO.C,D15*
X88350000Y31550000D03*
X91650000Y31550000D03*
G04 #@! TD*
D13*
G04 #@! TO.C,S16*
G36*
X86004512Y-18188613D02*
G01*
X86677441Y-15677206D01*
X89188848Y-16350135D01*
X88515919Y-18861542D01*
X86004512Y-18188613D01*
G37*
G36*
X74278667Y-17324290D02*
G01*
X74951596Y-14812883D01*
X77463003Y-15485812D01*
X76790074Y-17997219D01*
X74278667Y-17324290D01*
G37*
G04 #@! TD*
G04 #@! TO.C,D16*
G36*
X79415464Y-27034637D02*
G01*
X79726047Y-25875526D01*
X80595380Y-26108463D01*
X80284797Y-27267574D01*
X79415464Y-27034637D01*
G37*
G36*
X82603020Y-27888737D02*
G01*
X82913603Y-26729626D01*
X83782936Y-26962563D01*
X83472353Y-28121674D01*
X82603020Y-27888737D01*
G37*
G04 #@! TD*
G04 #@! TO.C,S17*
G36*
X103391212Y-22847313D02*
G01*
X104064141Y-20335906D01*
X106575548Y-21008835D01*
X105902619Y-23520242D01*
X103391212Y-22847313D01*
G37*
G36*
X91665367Y-21982990D02*
G01*
X92338296Y-19471583D01*
X94849703Y-20144512D01*
X94176774Y-22655919D01*
X91665367Y-21982990D01*
G37*
G04 #@! TD*
G04 #@! TO.C,D17*
G36*
X96802164Y-31693437D02*
G01*
X97112747Y-30534326D01*
X97982080Y-30767263D01*
X97671497Y-31926374D01*
X96802164Y-31693437D01*
G37*
G36*
X99989720Y-32547537D02*
G01*
X100300303Y-31388426D01*
X101169636Y-31621363D01*
X100859053Y-32780474D01*
X99989720Y-32547537D01*
G37*
G04 #@! TD*
G04 #@! TO.C,S18*
G36*
X120778212Y-27506113D02*
G01*
X121451141Y-24994706D01*
X123962548Y-25667635D01*
X123289619Y-28179042D01*
X120778212Y-27506113D01*
G37*
G36*
X109052367Y-26641790D02*
G01*
X109725296Y-24130383D01*
X112236703Y-24803312D01*
X111563774Y-27314719D01*
X109052367Y-26641790D01*
G37*
G04 #@! TD*
G04 #@! TO.C,D18*
G36*
X114189264Y-36352137D02*
G01*
X114499847Y-35193026D01*
X115369180Y-35425963D01*
X115058597Y-36585074D01*
X114189264Y-36352137D01*
G37*
G36*
X117376820Y-37206237D02*
G01*
X117687403Y-36047126D01*
X118556736Y-36280063D01*
X118246153Y-37439174D01*
X117376820Y-37206237D01*
G37*
G04 #@! TD*
D14*
G04 #@! TO.C,PAD1*
X113000000Y18550000D03*
G04 #@! TD*
G04 #@! TO.C,PAD2*
X113000000Y21550000D03*
G04 #@! TD*
D15*
G04 #@! TO.C,J2*
X113500000Y3050380D03*
X113500000Y2049620D03*
G04 #@! TD*
D16*
G04 #@! TO.C,T1*
X117925000Y300000D03*
X117925000Y3300000D03*
X117925000Y4800000D03*
D17*
X121100000Y-1150000D03*
X118900000Y-1150000D03*
X118900000Y6250000D03*
X121100000Y6250000D03*
G04 #@! TD*
M02*
