G04 #@! TF.GenerationSoftware,KiCad,Pcbnew,5.1.5+dfsg1-2build2*
G04 #@! TF.CreationDate,2022-04-19T07:05:38+00:00*
G04 #@! TF.ProjectId,board,626f6172-642e-46b6-9963-61645f706362,v1.0.0*
G04 #@! TF.SameCoordinates,Original*
G04 #@! TF.FileFunction,Copper,L2,Bot*
G04 #@! TF.FilePolarity,Positive*
%FSLAX46Y46*%
G04 Gerber Fmt 4.6, Leading zero omitted, Abs format (unit mm)*
G04 Created by KiCad (PCBNEW 5.1.5+dfsg1-2build2) date 2022-04-19 07:05:38*
%MOMM*%
%LPD*%
G04 APERTURE LIST*
G04 #@! TA.AperFunction,Profile*
%ADD10C,0.150000*%
G04 #@! TD*
G04 #@! TA.AperFunction,SMDPad,CuDef*
%ADD11R,2.600000X2.600000*%
G04 #@! TD*
G04 #@! TA.AperFunction,SMDPad,CuDef*
%ADD12R,0.900000X1.200000*%
G04 #@! TD*
G04 #@! TA.AperFunction,ComponentPad*
%ADD13C,1.905000*%
G04 #@! TD*
G04 #@! TA.AperFunction,ComponentPad*
%ADD14R,1.778000X1.778000*%
G04 #@! TD*
G04 #@! TA.AperFunction,SMDPad,CuDef*
%ADD15C,0.350000*%
G04 #@! TD*
G04 #@! TA.AperFunction,ComponentPad*
%ADD16C,0.350000*%
G04 #@! TD*
G04 #@! TA.AperFunction,ComponentPad*
%ADD17R,1.752600X1.752600*%
G04 #@! TD*
G04 #@! TA.AperFunction,ComponentPad*
%ADD18C,1.752600*%
G04 #@! TD*
G04 #@! TA.AperFunction,SMDPad,CuDef*
%ADD19R,1.500000X1.500000*%
G04 #@! TD*
G04 #@! TA.AperFunction,ComponentPad*
%ADD20O,2.200000X1.600000*%
G04 #@! TD*
G04 #@! TA.AperFunction,SMDPad,CuDef*
%ADD21R,1.143000X0.635000*%
G04 #@! TD*
G04 #@! TA.AperFunction,WasherPad*
%ADD22C,1.000000*%
G04 #@! TD*
G04 #@! TA.AperFunction,SMDPad,CuDef*
%ADD23R,1.250000X0.900000*%
G04 #@! TD*
G04 #@! TA.AperFunction,SMDPad,CuDef*
%ADD24R,0.900000X0.900000*%
G04 #@! TD*
G04 #@! TA.AperFunction,ComponentPad*
%ADD25C,2.000000*%
G04 #@! TD*
G04 #@! TA.AperFunction,ViaPad*
%ADD26C,0.800000*%
G04 #@! TD*
G04 #@! TA.AperFunction,Conductor*
%ADD27C,0.250000*%
G04 #@! TD*
G04 #@! TA.AperFunction,Conductor*
%ADD28C,0.500000*%
G04 #@! TD*
G04 APERTURE END LIST*
D10*
X10000000Y-9500000D02*
X26000000Y-9500000D01*
X8000000Y-7500000D02*
X8000000Y41500000D01*
X10000000Y-9500000D02*
G75*
G02X8000000Y-7500000I0J2000000D01*
G01*
X26000000Y43500000D02*
X10000000Y43500000D01*
X8000000Y41500000D02*
G75*
G02X10000000Y43500000I2000000J0D01*
G01*
X44000000Y56250000D02*
X28000000Y56250000D01*
X26000000Y54250000D02*
G75*
G02X28000000Y56250000I2000000J0D01*
G01*
X26000000Y54250000D02*
X26000000Y43500000D01*
X64000000Y52850000D02*
X64000000Y57650000D01*
X62000000Y59650000D02*
G75*
G02X64000000Y57650000I0J-2000000D01*
G01*
X62000000Y59650000D02*
X46000000Y59650000D01*
X44000000Y57650000D02*
G75*
G02X46000000Y59650000I2000000J0D01*
G01*
X44000000Y57650000D02*
X44000000Y56250000D01*
X82000000Y46050000D02*
X82000000Y50850000D01*
X80000000Y52850000D02*
G75*
G02X82000000Y50850000I0J-2000000D01*
G01*
X80000000Y52850000D02*
X64000000Y52850000D01*
X98000000Y46050000D02*
G75*
G02X99994367Y44200000I0J-2000000D01*
G01*
X98000000Y46050000D02*
X82000000Y46050000D01*
X72707107Y-29274745D02*
X122935250Y-42733335D01*
X72707107Y-29274745D02*
G75*
G02X72197860Y-29059141I517638J1931852D01*
G01*
X125384739Y-41319122D02*
G75*
G02X122935250Y-42733335I-1931851J517638D01*
G01*
X125384740Y-41319122D02*
X129267025Y-26830234D01*
X127852812Y-24380745D02*
G75*
G02X129267025Y-26830234I-517638J-1931851D01*
G01*
X122000000Y-20297692D02*
X127852812Y-24380745D01*
X72197860Y-29059141D02*
X26000000Y-9500000D01*
X122000000Y-20297692D02*
X122000000Y42200000D01*
X120000000Y44200000D02*
G75*
G02X122000000Y42200000I0J-2000000D01*
G01*
X120000000Y44200000D02*
X99994367Y44200000D01*
X29050000Y29750000D02*
G75*
G03X29050000Y29750000I-2050000J0D01*
G01*
X29050000Y0D02*
G75*
G03X29050000Y0I-2050000J0D01*
G01*
X83050000Y36550000D02*
G75*
G03X83050000Y36550000I-2050000J0D01*
G01*
X74050000Y-8670000D02*
G75*
G03X74050000Y-8670000I-2050000J0D01*
G01*
X110153958Y-28924179D02*
G75*
G03X110153958Y-28924179I-2050000J0D01*
G01*
D11*
G04 #@! TO.P,S1,1*
G04 #@! TO.N,pinky_bottom*
X14725000Y5950000D03*
G04 #@! TO.P,S1,2*
G04 #@! TO.N,P20*
X26275000Y3750000D03*
G04 #@! TD*
D12*
G04 #@! TO.P,D1,2*
G04 #@! TO.N,pinky_bottom*
X19650000Y-5000000D03*
G04 #@! TO.P,D1,1*
G04 #@! TO.N,P6*
X16350000Y-5000000D03*
D13*
G04 #@! TO.N,pinky_bottom*
X21810000Y-5000000D03*
D14*
G04 #@! TO.P,D1,2*
G04 #@! TO.N,P6*
X14190000Y-5000000D03*
G04 #@! TD*
D11*
G04 #@! TO.P,S2,1*
G04 #@! TO.N,pinky_home*
X14725000Y22950000D03*
G04 #@! TO.P,S2,2*
G04 #@! TO.N,P20*
X26275000Y20750000D03*
G04 #@! TD*
D12*
G04 #@! TO.P,D2,2*
G04 #@! TO.N,pinky_home*
X19650000Y12000000D03*
G04 #@! TO.P,D2,1*
G04 #@! TO.N,P5*
X16350000Y12000000D03*
D13*
G04 #@! TO.N,pinky_home*
X21810000Y12000000D03*
D14*
G04 #@! TO.P,D2,2*
G04 #@! TO.N,P5*
X14190000Y12000000D03*
G04 #@! TD*
D11*
G04 #@! TO.P,S3,1*
G04 #@! TO.N,pinky_top*
X14725000Y39950000D03*
G04 #@! TO.P,S3,2*
G04 #@! TO.N,P20*
X26275000Y37750000D03*
G04 #@! TD*
D12*
G04 #@! TO.P,D3,2*
G04 #@! TO.N,pinky_top*
X19650000Y29000000D03*
G04 #@! TO.P,D3,1*
G04 #@! TO.N,P4*
X16350000Y29000000D03*
D13*
G04 #@! TO.N,pinky_top*
X21810000Y29000000D03*
D14*
G04 #@! TO.P,D3,2*
G04 #@! TO.N,P4*
X14190000Y29000000D03*
G04 #@! TD*
D11*
G04 #@! TO.P,S4,1*
G04 #@! TO.N,ring_bottom*
X32725000Y18700000D03*
G04 #@! TO.P,S4,2*
G04 #@! TO.N,P19*
X44275000Y16500000D03*
G04 #@! TD*
D12*
G04 #@! TO.P,D4,2*
G04 #@! TO.N,ring_bottom*
X37650000Y7750000D03*
G04 #@! TO.P,D4,1*
G04 #@! TO.N,P6*
X34350000Y7750000D03*
D13*
G04 #@! TO.N,ring_bottom*
X39810000Y7750000D03*
D14*
G04 #@! TO.P,D4,2*
G04 #@! TO.N,P6*
X32190000Y7750000D03*
G04 #@! TD*
D11*
G04 #@! TO.P,S5,1*
G04 #@! TO.N,ring_home*
X32725000Y35700000D03*
G04 #@! TO.P,S5,2*
G04 #@! TO.N,P19*
X44275000Y33500000D03*
G04 #@! TD*
D12*
G04 #@! TO.P,D5,2*
G04 #@! TO.N,ring_home*
X37650000Y24750000D03*
G04 #@! TO.P,D5,1*
G04 #@! TO.N,P5*
X34350000Y24750000D03*
D13*
G04 #@! TO.N,ring_home*
X39810000Y24750000D03*
D14*
G04 #@! TO.P,D5,2*
G04 #@! TO.N,P5*
X32190000Y24750000D03*
G04 #@! TD*
D11*
G04 #@! TO.P,S6,1*
G04 #@! TO.N,ring_top*
X32725000Y52700000D03*
G04 #@! TO.P,S6,2*
G04 #@! TO.N,P19*
X44275000Y50500000D03*
G04 #@! TD*
D12*
G04 #@! TO.P,D6,2*
G04 #@! TO.N,ring_top*
X37650000Y41750000D03*
G04 #@! TO.P,D6,1*
G04 #@! TO.N,P4*
X34350000Y41750000D03*
D13*
G04 #@! TO.N,ring_top*
X39810000Y41750000D03*
D14*
G04 #@! TO.P,D6,2*
G04 #@! TO.N,P4*
X32190000Y41750000D03*
G04 #@! TD*
D11*
G04 #@! TO.P,S7,1*
G04 #@! TO.N,middle_bottom*
X50725000Y22100000D03*
G04 #@! TO.P,S7,2*
G04 #@! TO.N,P18*
X62275000Y19900000D03*
G04 #@! TD*
D12*
G04 #@! TO.P,D7,2*
G04 #@! TO.N,middle_bottom*
X55650000Y11150000D03*
G04 #@! TO.P,D7,1*
G04 #@! TO.N,P6*
X52350000Y11150000D03*
D13*
G04 #@! TO.N,middle_bottom*
X57810000Y11150000D03*
D14*
G04 #@! TO.P,D7,2*
G04 #@! TO.N,P6*
X50190000Y11150000D03*
G04 #@! TD*
D11*
G04 #@! TO.P,S8,1*
G04 #@! TO.N,middle_home*
X50725000Y39100000D03*
G04 #@! TO.P,S8,2*
G04 #@! TO.N,P18*
X62275000Y36900000D03*
G04 #@! TD*
D12*
G04 #@! TO.P,D8,2*
G04 #@! TO.N,middle_home*
X55650000Y28150000D03*
G04 #@! TO.P,D8,1*
G04 #@! TO.N,P5*
X52350000Y28150000D03*
D13*
G04 #@! TO.N,middle_home*
X57810000Y28150000D03*
D14*
G04 #@! TO.P,D8,2*
G04 #@! TO.N,P5*
X50190000Y28150000D03*
G04 #@! TD*
D11*
G04 #@! TO.P,S9,1*
G04 #@! TO.N,middle_top*
X50725000Y56100000D03*
G04 #@! TO.P,S9,2*
G04 #@! TO.N,P18*
X62275000Y53900000D03*
G04 #@! TD*
D12*
G04 #@! TO.P,D9,2*
G04 #@! TO.N,middle_top*
X55650000Y45150000D03*
G04 #@! TO.P,D9,1*
G04 #@! TO.N,P4*
X52350000Y45150000D03*
D13*
G04 #@! TO.N,middle_top*
X57810000Y45150000D03*
D14*
G04 #@! TO.P,D9,2*
G04 #@! TO.N,P4*
X50190000Y45150000D03*
G04 #@! TD*
D11*
G04 #@! TO.P,S10,1*
G04 #@! TO.N,index_bottom*
X68725000Y15300000D03*
G04 #@! TO.P,S10,2*
G04 #@! TO.N,P15*
X80275000Y13100000D03*
G04 #@! TD*
D12*
G04 #@! TO.P,D10,2*
G04 #@! TO.N,index_bottom*
X73650000Y4350000D03*
G04 #@! TO.P,D10,1*
G04 #@! TO.N,P6*
X70350000Y4350000D03*
D13*
G04 #@! TO.N,index_bottom*
X75810000Y4350000D03*
D14*
G04 #@! TO.P,D10,2*
G04 #@! TO.N,P6*
X68190000Y4350000D03*
G04 #@! TD*
D11*
G04 #@! TO.P,S11,1*
G04 #@! TO.N,index_home*
X68725000Y32300000D03*
G04 #@! TO.P,S11,2*
G04 #@! TO.N,P15*
X80275000Y30100000D03*
G04 #@! TD*
D12*
G04 #@! TO.P,D11,2*
G04 #@! TO.N,index_home*
X73650000Y21350000D03*
G04 #@! TO.P,D11,1*
G04 #@! TO.N,P5*
X70350000Y21350000D03*
D13*
G04 #@! TO.N,index_home*
X75810000Y21350000D03*
D14*
G04 #@! TO.P,D11,2*
G04 #@! TO.N,P5*
X68190000Y21350000D03*
G04 #@! TD*
D11*
G04 #@! TO.P,S12,1*
G04 #@! TO.N,index_top*
X68725000Y49300000D03*
G04 #@! TO.P,S12,2*
G04 #@! TO.N,P15*
X80275000Y47100000D03*
G04 #@! TD*
D12*
G04 #@! TO.P,D12,2*
G04 #@! TO.N,index_top*
X73650000Y38350000D03*
G04 #@! TO.P,D12,1*
G04 #@! TO.N,P4*
X70350000Y38350000D03*
D13*
G04 #@! TO.N,index_top*
X75810000Y38350000D03*
D14*
G04 #@! TO.P,D12,2*
G04 #@! TO.N,P4*
X68190000Y38350000D03*
G04 #@! TD*
D11*
G04 #@! TO.P,S13,1*
G04 #@! TO.N,inner_bottom*
X86725000Y8500000D03*
G04 #@! TO.P,S13,2*
G04 #@! TO.N,P14*
X98275000Y6300000D03*
G04 #@! TD*
D12*
G04 #@! TO.P,D13,2*
G04 #@! TO.N,inner_bottom*
X91650000Y-2450000D03*
G04 #@! TO.P,D13,1*
G04 #@! TO.N,P6*
X88350000Y-2450000D03*
D13*
G04 #@! TO.N,inner_bottom*
X93810000Y-2450000D03*
D14*
G04 #@! TO.P,D13,2*
G04 #@! TO.N,P6*
X86190000Y-2450000D03*
G04 #@! TD*
D11*
G04 #@! TO.P,S14,1*
G04 #@! TO.N,inner_home*
X86725000Y25500000D03*
G04 #@! TO.P,S14,2*
G04 #@! TO.N,P14*
X98275000Y23300000D03*
G04 #@! TD*
D12*
G04 #@! TO.P,D14,2*
G04 #@! TO.N,inner_home*
X91650000Y14550000D03*
G04 #@! TO.P,D14,1*
G04 #@! TO.N,P5*
X88350000Y14550000D03*
D13*
G04 #@! TO.N,inner_home*
X93810000Y14550000D03*
D14*
G04 #@! TO.P,D14,2*
G04 #@! TO.N,P5*
X86190000Y14550000D03*
G04 #@! TD*
D11*
G04 #@! TO.P,S15,1*
G04 #@! TO.N,inner_top*
X86725000Y42500000D03*
G04 #@! TO.P,S15,2*
G04 #@! TO.N,P14*
X98275000Y40300000D03*
G04 #@! TD*
D12*
G04 #@! TO.P,D15,2*
G04 #@! TO.N,inner_top*
X91650000Y31550000D03*
G04 #@! TO.P,D15,1*
G04 #@! TO.N,P4*
X88350000Y31550000D03*
D13*
G04 #@! TO.N,inner_top*
X93810000Y31550000D03*
D14*
G04 #@! TO.P,D15,2*
G04 #@! TO.N,P4*
X86190000Y31550000D03*
G04 #@! TD*
G04 #@! TA.AperFunction,SMDPad,CuDef*
D15*
G04 #@! TO.P,S16,1*
G04 #@! TO.N,near_thumb*
G36*
X79677698Y-16493348D02*
G01*
X80350627Y-13981941D01*
X82862034Y-14654870D01*
X82189105Y-17166277D01*
X79677698Y-16493348D01*
G37*
G04 #@! TD.AperFunction*
G04 #@! TA.AperFunction,SMDPad,CuDef*
G04 #@! TO.P,S16,2*
G04 #@! TO.N,P18*
G36*
X90264740Y-21607745D02*
G01*
X90937669Y-19096338D01*
X93449076Y-19769267D01*
X92776147Y-22280674D01*
X90264740Y-21607745D01*
G37*
G04 #@! TD.AperFunction*
G04 #@! TD*
G04 #@! TA.AperFunction,SMDPad,CuDef*
G04 #@! TO.P,D16,2*
G04 #@! TO.N,near_thumb*
G36*
X82603020Y-27888737D02*
G01*
X82913603Y-26729626D01*
X83782936Y-26962563D01*
X83472353Y-28121674D01*
X82603020Y-27888737D01*
G37*
G04 #@! TD.AperFunction*
G04 #@! TA.AperFunction,SMDPad,CuDef*
G04 #@! TO.P,D16,1*
G04 #@! TO.N,P7*
G36*
X79415464Y-27034637D02*
G01*
X79726047Y-25875526D01*
X80595380Y-26108463D01*
X80284797Y-27267574D01*
X79415464Y-27034637D01*
G37*
G04 #@! TD.AperFunction*
D13*
G04 #@! TO.N,near_thumb*
X85279377Y-27984702D03*
G04 #@! TA.AperFunction,ComponentPad*
D16*
G04 #@! TO.P,D16,2*
G04 #@! TO.N,P7*
G36*
X76830225Y-26641116D02*
G01*
X77290405Y-24923700D01*
X79007821Y-25383880D01*
X78547641Y-27101296D01*
X76830225Y-26641116D01*
G37*
G04 #@! TD.AperFunction*
G04 #@! TD*
G04 #@! TA.AperFunction,SMDPad,CuDef*
D15*
G04 #@! TO.P,S17,1*
G04 #@! TO.N,home_thumb*
G36*
X97064398Y-21152048D02*
G01*
X97737327Y-18640641D01*
X100248734Y-19313570D01*
X99575805Y-21824977D01*
X97064398Y-21152048D01*
G37*
G04 #@! TD.AperFunction*
G04 #@! TA.AperFunction,SMDPad,CuDef*
G04 #@! TO.P,S17,2*
G04 #@! TO.N,P15*
G36*
X107651440Y-26266445D02*
G01*
X108324369Y-23755038D01*
X110835776Y-24427967D01*
X110162847Y-26939374D01*
X107651440Y-26266445D01*
G37*
G04 #@! TD.AperFunction*
G04 #@! TD*
G04 #@! TA.AperFunction,SMDPad,CuDef*
G04 #@! TO.P,D17,2*
G04 #@! TO.N,home_thumb*
G36*
X99989720Y-32547537D02*
G01*
X100300303Y-31388426D01*
X101169636Y-31621363D01*
X100859053Y-32780474D01*
X99989720Y-32547537D01*
G37*
G04 #@! TD.AperFunction*
G04 #@! TA.AperFunction,SMDPad,CuDef*
G04 #@! TO.P,D17,1*
G04 #@! TO.N,P7*
G36*
X96802164Y-31693437D02*
G01*
X97112747Y-30534326D01*
X97982080Y-30767263D01*
X97671497Y-31926374D01*
X96802164Y-31693437D01*
G37*
G04 #@! TD.AperFunction*
D13*
G04 #@! TO.N,home_thumb*
X102666077Y-32643502D03*
G04 #@! TA.AperFunction,ComponentPad*
D16*
G04 #@! TO.P,D17,2*
G04 #@! TO.N,P7*
G36*
X94216925Y-31299916D02*
G01*
X94677105Y-29582500D01*
X96394521Y-30042680D01*
X95934341Y-31760096D01*
X94216925Y-31299916D01*
G37*
G04 #@! TD.AperFunction*
G04 #@! TD*
G04 #@! TA.AperFunction,SMDPad,CuDef*
D15*
G04 #@! TO.P,S18,1*
G04 #@! TO.N,far_thumb*
G36*
X114451398Y-25810848D02*
G01*
X115124327Y-23299441D01*
X117635734Y-23972370D01*
X116962805Y-26483777D01*
X114451398Y-25810848D01*
G37*
G04 #@! TD.AperFunction*
G04 #@! TA.AperFunction,SMDPad,CuDef*
G04 #@! TO.P,S18,2*
G04 #@! TO.N,P14*
G36*
X125038440Y-30925245D02*
G01*
X125711369Y-28413838D01*
X128222776Y-29086767D01*
X127549847Y-31598174D01*
X125038440Y-30925245D01*
G37*
G04 #@! TD.AperFunction*
G04 #@! TD*
G04 #@! TA.AperFunction,SMDPad,CuDef*
G04 #@! TO.P,D18,2*
G04 #@! TO.N,far_thumb*
G36*
X117376820Y-37206237D02*
G01*
X117687403Y-36047126D01*
X118556736Y-36280063D01*
X118246153Y-37439174D01*
X117376820Y-37206237D01*
G37*
G04 #@! TD.AperFunction*
G04 #@! TA.AperFunction,SMDPad,CuDef*
G04 #@! TO.P,D18,1*
G04 #@! TO.N,P7*
G36*
X114189264Y-36352137D02*
G01*
X114499847Y-35193026D01*
X115369180Y-35425963D01*
X115058597Y-36585074D01*
X114189264Y-36352137D01*
G37*
G04 #@! TD.AperFunction*
D13*
G04 #@! TO.N,far_thumb*
X120053177Y-37302202D03*
G04 #@! TA.AperFunction,ComponentPad*
D16*
G04 #@! TO.P,D18,2*
G04 #@! TO.N,P7*
G36*
X111604025Y-35958616D02*
G01*
X112064205Y-34241200D01*
X113781621Y-34701380D01*
X113321441Y-36418796D01*
X111604025Y-35958616D01*
G37*
G04 #@! TD.AperFunction*
G04 #@! TD*
D17*
G04 #@! TO.P,MCU1,1*
G04 #@! TO.N,RAW*
X117620000Y39520000D03*
D18*
G04 #@! TO.P,MCU1,2*
G04 #@! TO.N,GND*
X117620000Y36980000D03*
G04 #@! TO.P,MCU1,3*
G04 #@! TO.N,RST*
X117620000Y34440000D03*
G04 #@! TO.P,MCU1,4*
G04 #@! TO.N,VCC*
X117620000Y31900000D03*
G04 #@! TO.P,MCU1,5*
G04 #@! TO.N,P21*
X117620000Y29360000D03*
G04 #@! TO.P,MCU1,6*
G04 #@! TO.N,P20*
X117620000Y26820000D03*
G04 #@! TO.P,MCU1,7*
G04 #@! TO.N,P19*
X117620000Y24280000D03*
G04 #@! TO.P,MCU1,8*
G04 #@! TO.N,P18*
X117620000Y21740000D03*
G04 #@! TO.P,MCU1,9*
G04 #@! TO.N,P15*
X117620000Y19200000D03*
G04 #@! TO.P,MCU1,10*
G04 #@! TO.N,P14*
X117620000Y16660000D03*
G04 #@! TO.P,MCU1,11*
G04 #@! TO.N,P16*
X117620000Y14120000D03*
G04 #@! TO.P,MCU1,12*
G04 #@! TO.N,P10*
X117620000Y11580000D03*
G04 #@! TO.P,MCU1,13*
G04 #@! TO.N,P1*
X102380000Y39520000D03*
G04 #@! TO.P,MCU1,14*
G04 #@! TO.N,P0*
X102380000Y36980000D03*
G04 #@! TO.P,MCU1,15*
G04 #@! TO.N,GND*
X102380000Y34440000D03*
G04 #@! TO.P,MCU1,16*
X102380000Y31900000D03*
G04 #@! TO.P,MCU1,17*
G04 #@! TO.N,P2*
X102380000Y29360000D03*
G04 #@! TO.P,MCU1,18*
G04 #@! TO.N,P3*
X102380000Y26820000D03*
G04 #@! TO.P,MCU1,19*
G04 #@! TO.N,P4*
X102380000Y24280000D03*
G04 #@! TO.P,MCU1,20*
G04 #@! TO.N,P5*
X102380000Y21740000D03*
G04 #@! TO.P,MCU1,21*
G04 #@! TO.N,P6*
X102380000Y19200000D03*
G04 #@! TO.P,MCU1,22*
G04 #@! TO.N,P7*
X102380000Y16660000D03*
G04 #@! TO.P,MCU1,23*
G04 #@! TO.N,P8*
X102380000Y14120000D03*
G04 #@! TO.P,MCU1,24*
G04 #@! TO.N,P9*
X102380000Y11580000D03*
G04 #@! TA.AperFunction,ComponentPad*
D16*
G04 #@! TO.P,MCU1,25*
G04 #@! TO.N,Bplus*
G36*
X118031756Y42808194D02*
G01*
X118068159Y42802794D01*
X118103857Y42793853D01*
X118138506Y42781455D01*
X118171774Y42765720D01*
X118203339Y42746801D01*
X118232897Y42724879D01*
X118260165Y42700165D01*
X118284879Y42672897D01*
X118306801Y42643339D01*
X118325720Y42611774D01*
X118341455Y42578506D01*
X118353853Y42543857D01*
X118362794Y42508159D01*
X118368194Y42471756D01*
X118370000Y42435000D01*
X118370000Y41685000D01*
X118368194Y41648244D01*
X118362794Y41611841D01*
X118353853Y41576143D01*
X118341455Y41541494D01*
X118325720Y41508226D01*
X118306801Y41476661D01*
X118284879Y41447103D01*
X118260165Y41419835D01*
X118232897Y41395121D01*
X118203339Y41373199D01*
X118171774Y41354280D01*
X118138506Y41338545D01*
X118103857Y41326147D01*
X118068159Y41317206D01*
X118031756Y41311806D01*
X117995000Y41310000D01*
X117245000Y41310000D01*
X117208244Y41311806D01*
X117171841Y41317206D01*
X117136143Y41326147D01*
X117101494Y41338545D01*
X117068226Y41354280D01*
X117036661Y41373199D01*
X117007103Y41395121D01*
X116979835Y41419835D01*
X116955121Y41447103D01*
X116933199Y41476661D01*
X116914280Y41508226D01*
X116898545Y41541494D01*
X116886147Y41576143D01*
X116877206Y41611841D01*
X116871806Y41648244D01*
X116870000Y41685000D01*
X116870000Y42435000D01*
X116871806Y42471756D01*
X116877206Y42508159D01*
X116886147Y42543857D01*
X116898545Y42578506D01*
X116914280Y42611774D01*
X116933199Y42643339D01*
X116955121Y42672897D01*
X116979835Y42700165D01*
X117007103Y42724879D01*
X117036661Y42746801D01*
X117068226Y42765720D01*
X117101494Y42781455D01*
X117136143Y42793853D01*
X117171841Y42802794D01*
X117208244Y42808194D01*
X117245000Y42810000D01*
X117995000Y42810000D01*
X118031756Y42808194D01*
G37*
G04 #@! TD.AperFunction*
G04 #@! TA.AperFunction,ComponentPad*
G04 #@! TO.N,Bminus*
G36*
X102791756Y42808194D02*
G01*
X102828159Y42802794D01*
X102863857Y42793853D01*
X102898506Y42781455D01*
X102931774Y42765720D01*
X102963339Y42746801D01*
X102992897Y42724879D01*
X103020165Y42700165D01*
X103044879Y42672897D01*
X103066801Y42643339D01*
X103085720Y42611774D01*
X103101455Y42578506D01*
X103113853Y42543857D01*
X103122794Y42508159D01*
X103128194Y42471756D01*
X103130000Y42435000D01*
X103130000Y41685000D01*
X103128194Y41648244D01*
X103122794Y41611841D01*
X103113853Y41576143D01*
X103101455Y41541494D01*
X103085720Y41508226D01*
X103066801Y41476661D01*
X103044879Y41447103D01*
X103020165Y41419835D01*
X102992897Y41395121D01*
X102963339Y41373199D01*
X102931774Y41354280D01*
X102898506Y41338545D01*
X102863857Y41326147D01*
X102828159Y41317206D01*
X102791756Y41311806D01*
X102755000Y41310000D01*
X102005000Y41310000D01*
X101968244Y41311806D01*
X101931841Y41317206D01*
X101896143Y41326147D01*
X101861494Y41338545D01*
X101828226Y41354280D01*
X101796661Y41373199D01*
X101767103Y41395121D01*
X101739835Y41419835D01*
X101715121Y41447103D01*
X101693199Y41476661D01*
X101674280Y41508226D01*
X101658545Y41541494D01*
X101646147Y41576143D01*
X101637206Y41611841D01*
X101631806Y41648244D01*
X101630000Y41685000D01*
X101630000Y42435000D01*
X101631806Y42471756D01*
X101637206Y42508159D01*
X101646147Y42543857D01*
X101658545Y42578506D01*
X101674280Y42611774D01*
X101693199Y42643339D01*
X101715121Y42672897D01*
X101739835Y42700165D01*
X101767103Y42724879D01*
X101796661Y42746801D01*
X101828226Y42765720D01*
X101861494Y42781455D01*
X101896143Y42793853D01*
X101931841Y42802794D01*
X101968244Y42808194D01*
X102005000Y42810000D01*
X102755000Y42810000D01*
X102791756Y42808194D01*
G37*
G04 #@! TD.AperFunction*
G04 #@! TD*
D17*
G04 #@! TO.P,MCU2,1*
G04 #@! TO.N,RAW*
X104880000Y38270000D03*
D18*
G04 #@! TO.P,MCU2,2*
G04 #@! TO.N,GND*
X104880000Y35730000D03*
G04 #@! TO.P,MCU2,3*
G04 #@! TO.N,RST*
X104880000Y33190000D03*
G04 #@! TO.P,MCU2,4*
G04 #@! TO.N,VCC*
X104880000Y30650000D03*
G04 #@! TO.P,MCU2,5*
G04 #@! TO.N,P21*
X104880000Y28110000D03*
G04 #@! TO.P,MCU2,6*
G04 #@! TO.N,P20*
X104880000Y25570000D03*
G04 #@! TO.P,MCU2,7*
G04 #@! TO.N,P19*
X104880000Y23030000D03*
G04 #@! TO.P,MCU2,8*
G04 #@! TO.N,P18*
X104880000Y20490000D03*
G04 #@! TO.P,MCU2,9*
G04 #@! TO.N,P15*
X104880000Y17950000D03*
G04 #@! TO.P,MCU2,10*
G04 #@! TO.N,P14*
X104880000Y15410000D03*
G04 #@! TO.P,MCU2,11*
G04 #@! TO.N,P16*
X104880000Y12870000D03*
G04 #@! TO.P,MCU2,12*
G04 #@! TO.N,P10*
X104880000Y10330000D03*
G04 #@! TO.P,MCU2,13*
G04 #@! TO.N,P1*
X120120000Y38270000D03*
G04 #@! TO.P,MCU2,14*
G04 #@! TO.N,P0*
X120120000Y35730000D03*
G04 #@! TO.P,MCU2,15*
G04 #@! TO.N,GND*
X120120000Y33190000D03*
G04 #@! TO.P,MCU2,16*
X120120000Y30650000D03*
G04 #@! TO.P,MCU2,17*
G04 #@! TO.N,P2*
X120120000Y28110000D03*
G04 #@! TO.P,MCU2,18*
G04 #@! TO.N,P3*
X120120000Y25570000D03*
G04 #@! TO.P,MCU2,19*
G04 #@! TO.N,P4*
X120120000Y23030000D03*
G04 #@! TO.P,MCU2,20*
G04 #@! TO.N,P5*
X120120000Y20490000D03*
G04 #@! TO.P,MCU2,21*
G04 #@! TO.N,P6*
X120120000Y17950000D03*
G04 #@! TO.P,MCU2,22*
G04 #@! TO.N,P7*
X120120000Y15410000D03*
G04 #@! TO.P,MCU2,23*
G04 #@! TO.N,P8*
X120120000Y12870000D03*
G04 #@! TO.P,MCU2,24*
G04 #@! TO.N,P9*
X120120000Y10330000D03*
G04 #@! TA.AperFunction,ComponentPad*
D16*
G04 #@! TO.P,MCU2,25*
G04 #@! TO.N,Bplus*
G36*
X105291756Y41558194D02*
G01*
X105328159Y41552794D01*
X105363857Y41543853D01*
X105398506Y41531455D01*
X105431774Y41515720D01*
X105463339Y41496801D01*
X105492897Y41474879D01*
X105520165Y41450165D01*
X105544879Y41422897D01*
X105566801Y41393339D01*
X105585720Y41361774D01*
X105601455Y41328506D01*
X105613853Y41293857D01*
X105622794Y41258159D01*
X105628194Y41221756D01*
X105630000Y41185000D01*
X105630000Y40435000D01*
X105628194Y40398244D01*
X105622794Y40361841D01*
X105613853Y40326143D01*
X105601455Y40291494D01*
X105585720Y40258226D01*
X105566801Y40226661D01*
X105544879Y40197103D01*
X105520165Y40169835D01*
X105492897Y40145121D01*
X105463339Y40123199D01*
X105431774Y40104280D01*
X105398506Y40088545D01*
X105363857Y40076147D01*
X105328159Y40067206D01*
X105291756Y40061806D01*
X105255000Y40060000D01*
X104505000Y40060000D01*
X104468244Y40061806D01*
X104431841Y40067206D01*
X104396143Y40076147D01*
X104361494Y40088545D01*
X104328226Y40104280D01*
X104296661Y40123199D01*
X104267103Y40145121D01*
X104239835Y40169835D01*
X104215121Y40197103D01*
X104193199Y40226661D01*
X104174280Y40258226D01*
X104158545Y40291494D01*
X104146147Y40326143D01*
X104137206Y40361841D01*
X104131806Y40398244D01*
X104130000Y40435000D01*
X104130000Y41185000D01*
X104131806Y41221756D01*
X104137206Y41258159D01*
X104146147Y41293857D01*
X104158545Y41328506D01*
X104174280Y41361774D01*
X104193199Y41393339D01*
X104215121Y41422897D01*
X104239835Y41450165D01*
X104267103Y41474879D01*
X104296661Y41496801D01*
X104328226Y41515720D01*
X104361494Y41531455D01*
X104396143Y41543853D01*
X104431841Y41552794D01*
X104468244Y41558194D01*
X104505000Y41560000D01*
X105255000Y41560000D01*
X105291756Y41558194D01*
G37*
G04 #@! TD.AperFunction*
G04 #@! TA.AperFunction,ComponentPad*
G04 #@! TO.N,Bminus*
G36*
X120531756Y41558194D02*
G01*
X120568159Y41552794D01*
X120603857Y41543853D01*
X120638506Y41531455D01*
X120671774Y41515720D01*
X120703339Y41496801D01*
X120732897Y41474879D01*
X120760165Y41450165D01*
X120784879Y41422897D01*
X120806801Y41393339D01*
X120825720Y41361774D01*
X120841455Y41328506D01*
X120853853Y41293857D01*
X120862794Y41258159D01*
X120868194Y41221756D01*
X120870000Y41185000D01*
X120870000Y40435000D01*
X120868194Y40398244D01*
X120862794Y40361841D01*
X120853853Y40326143D01*
X120841455Y40291494D01*
X120825720Y40258226D01*
X120806801Y40226661D01*
X120784879Y40197103D01*
X120760165Y40169835D01*
X120732897Y40145121D01*
X120703339Y40123199D01*
X120671774Y40104280D01*
X120638506Y40088545D01*
X120603857Y40076147D01*
X120568159Y40067206D01*
X120531756Y40061806D01*
X120495000Y40060000D01*
X119745000Y40060000D01*
X119708244Y40061806D01*
X119671841Y40067206D01*
X119636143Y40076147D01*
X119601494Y40088545D01*
X119568226Y40104280D01*
X119536661Y40123199D01*
X119507103Y40145121D01*
X119479835Y40169835D01*
X119455121Y40197103D01*
X119433199Y40226661D01*
X119414280Y40258226D01*
X119398545Y40291494D01*
X119386147Y40326143D01*
X119377206Y40361841D01*
X119371806Y40398244D01*
X119370000Y40435000D01*
X119370000Y41185000D01*
X119371806Y41221756D01*
X119377206Y41258159D01*
X119386147Y41293857D01*
X119398545Y41328506D01*
X119414280Y41361774D01*
X119433199Y41393339D01*
X119455121Y41422897D01*
X119479835Y41450165D01*
X119507103Y41474879D01*
X119536661Y41496801D01*
X119568226Y41515720D01*
X119601494Y41531455D01*
X119636143Y41543853D01*
X119671841Y41552794D01*
X119708244Y41558194D01*
X119745000Y41560000D01*
X120495000Y41560000D01*
X120531756Y41558194D01*
G37*
G04 #@! TD.AperFunction*
G04 #@! TD*
D19*
G04 #@! TO.P,PAD1,1*
G04 #@! TO.N,Braw*
X113000000Y18550000D03*
G04 #@! TD*
G04 #@! TO.P,PAD2,1*
G04 #@! TO.N,Bminus*
X113000000Y21550000D03*
G04 #@! TD*
D20*
G04 #@! TO.P,TRRS1,1*
G04 #@! TO.N,N/C*
X110700000Y-7850000D03*
G04 #@! TO.P,TRRS1,2*
G04 #@! TO.N,VCC*
X111800000Y-12450000D03*
G04 #@! TO.P,TRRS1,3*
G04 #@! TO.N,GND*
X115800000Y-12450000D03*
G04 #@! TO.P,TRRS1,4*
G04 #@! TO.N,P0*
X118800000Y-12450000D03*
G04 #@! TD*
G04 #@! TO.P,TRRS2,1*
G04 #@! TO.N,N/C*
X110700000Y-10450000D03*
G04 #@! TO.P,TRRS2,2*
G04 #@! TO.N,VCC*
X111800000Y-5850000D03*
G04 #@! TO.P,TRRS2,3*
G04 #@! TO.N,GND*
X115800000Y-5850000D03*
G04 #@! TO.P,TRRS2,4*
G04 #@! TO.N,P0*
X118800000Y-5850000D03*
G04 #@! TD*
D21*
G04 #@! TO.P,J1,1*
G04 #@! TO.N,Braw*
X113500000Y3050380D03*
G04 #@! TO.P,J1,2*
G04 #@! TO.N,Bplus*
X113500000Y2049620D03*
G04 #@! TD*
D22*
G04 #@! TO.P,T1,*
G04 #@! TO.N,*
X120000000Y1050000D03*
X120000000Y4050000D03*
G04 #@! TD*
G04 #@! TO.P,T2,*
G04 #@! TO.N,*
X120000000Y1050000D03*
X120000000Y4050000D03*
D23*
G04 #@! TO.P,T2,1*
G04 #@! TO.N,Braw*
X117925000Y4800000D03*
G04 #@! TO.P,T2,2*
G04 #@! TO.N,Bplus*
X117925000Y1800000D03*
G04 #@! TO.P,T2,3*
G04 #@! TO.N,N/C*
X117925000Y300000D03*
D24*
G04 #@! TO.P,T2,*
G04 #@! TO.N,*
X121100000Y-1150000D03*
X118900000Y-1150000D03*
X118900000Y6250000D03*
X121100000Y6250000D03*
G04 #@! TD*
D25*
G04 #@! TO.P,B1,2*
G04 #@! TO.N,GND*
X107000000Y5800000D03*
G04 #@! TO.P,B1,1*
G04 #@! TO.N,RST*
X107000000Y-700000D03*
G04 #@! TD*
D26*
G04 #@! TO.N,P20*
X23886900Y31579800D03*
X32071300Y26645100D03*
X113327500Y31920000D03*
X24608200Y25180500D03*
G04 #@! TO.N,P5*
X26951300Y10399200D03*
X63286400Y26105600D03*
G04 #@! TO.N,P4*
X45000000Y40461600D03*
X78491600Y31782100D03*
G04 #@! TO.N,P19*
X46202000Y17460800D03*
G04 #@! TO.N,P18*
X62275000Y23664900D03*
X62275000Y-14414400D03*
X62275000Y26842500D03*
X91856900Y-14715200D03*
G04 #@! TO.N,P15*
X80275000Y15360800D03*
X78329800Y36908600D03*
X105273100Y-19235600D03*
G04 #@! TO.N,P14*
X98130900Y27984400D03*
X98740200Y15290000D03*
X98275000Y38395400D03*
G04 #@! TO.N,inner_home*
X87921700Y23567400D03*
G04 #@! TO.N,P7*
X82918700Y12602000D03*
G04 #@! TO.N,home_thumb*
X99608900Y-22905800D03*
G04 #@! TO.N,RST*
X99571000Y2568100D03*
G04 #@! TO.N,Bplus*
X115350000Y2049600D03*
G04 #@! TO.N,Bminus*
X111594800Y22243800D03*
G04 #@! TO.N,Braw*
X114698600Y3050400D03*
X113001800Y17060800D03*
G04 #@! TD*
D27*
G04 #@! TO.N,pinky_bottom*
X19650000Y-5000000D02*
X18874700Y-5000000D01*
X18874700Y-5000000D02*
X15921700Y-2047000D01*
X15921700Y-2047000D02*
X15921700Y4753300D01*
X15921700Y4753300D02*
X14725000Y5950000D01*
X21810000Y-5000000D02*
X19650000Y-5000000D01*
G04 #@! TO.N,P20*
X23886900Y31579800D02*
X26275000Y33967900D01*
X26275000Y33967900D02*
X26275000Y37750000D01*
X117620000Y26820000D02*
X113327500Y31112500D01*
X113327500Y31112500D02*
X113327500Y31920000D01*
X32071300Y26645100D02*
X30544800Y26645100D01*
X30544800Y26645100D02*
X26275000Y22375300D01*
X26275000Y22375300D02*
X24608200Y24042100D01*
X24608200Y24042100D02*
X24608200Y25180500D01*
X26275000Y3750000D02*
X26275000Y5375300D01*
X26275000Y20750000D02*
X26275000Y19124700D01*
X26275000Y19124700D02*
X26226000Y19075700D01*
X26226000Y19075700D02*
X26226000Y5424300D01*
X26226000Y5424300D02*
X26275000Y5375300D01*
X26275000Y21256000D02*
X26275000Y20750000D01*
X26275000Y21256000D02*
X26275000Y22375300D01*
G04 #@! TO.N,P6*
X32190000Y7750000D02*
X32190000Y1830400D01*
X32190000Y1830400D02*
X24022300Y-6337300D01*
X24022300Y-6337300D02*
X18462600Y-6337300D01*
X18462600Y-6337300D02*
X17125300Y-5000000D01*
X16350000Y-5000000D02*
X17125300Y-5000000D01*
X34350000Y7750000D02*
X32190000Y7750000D01*
X102380000Y19200000D02*
X100253600Y17073600D01*
X100253600Y17073600D02*
X100253600Y9892500D01*
X100253600Y9892500D02*
X100366200Y9779900D01*
X100366200Y9779900D02*
X100366200Y2264200D01*
X100366200Y2264200D02*
X94339400Y-3762600D01*
X94339400Y-3762600D02*
X90437900Y-3762600D01*
X90437900Y-3762600D02*
X89125300Y-2450000D01*
X88350000Y-2450000D02*
X89125300Y-2450000D01*
X88350000Y-2450000D02*
X86190000Y-2450000D01*
X16350000Y-5000000D02*
X14190000Y-5000000D01*
X52350000Y11150000D02*
X50190000Y11150000D01*
X70350000Y4350000D02*
X68190000Y4350000D01*
G04 #@! TO.N,pinky_home*
X19650000Y12000000D02*
X18874700Y12000000D01*
X18874700Y12000000D02*
X15921700Y14953000D01*
X15921700Y14953000D02*
X15921700Y21753300D01*
X15921700Y21753300D02*
X14725000Y22950000D01*
X21810000Y12000000D02*
X19650000Y12000000D01*
G04 #@! TO.N,P5*
X68190000Y22564300D02*
X66827700Y22564300D01*
X66827700Y22564300D02*
X63286400Y26105600D01*
X32190000Y24750000D02*
X32190000Y22140000D01*
X32190000Y22140000D02*
X26951300Y16901300D01*
X26951300Y16901300D02*
X26951300Y10399200D01*
X34350000Y24750000D02*
X32190000Y24750000D01*
X68190000Y21350000D02*
X68190000Y22564300D01*
X70350000Y21350000D02*
X68190000Y21350000D01*
X16350000Y12000000D02*
X14190000Y12000000D01*
X50190000Y28150000D02*
X52350000Y28150000D01*
X88350000Y14550000D02*
X86190000Y14550000D01*
G04 #@! TO.N,pinky_top*
X19650000Y29000000D02*
X18874700Y29000000D01*
X18874700Y29000000D02*
X15921700Y31953000D01*
X15921700Y31953000D02*
X15921700Y38753300D01*
X15921700Y38753300D02*
X14725000Y39950000D01*
X21810000Y29000000D02*
X19650000Y29000000D01*
G04 #@! TO.N,P4*
X17125300Y29000000D02*
X18413700Y27711600D01*
X18413700Y27711600D02*
X22340500Y27711600D01*
X22340500Y27711600D02*
X23782200Y29153300D01*
X23782200Y29153300D02*
X23782200Y30449300D01*
X23782200Y30449300D02*
X32190000Y38857100D01*
X32190000Y38857100D02*
X32190000Y41750000D01*
X16350000Y29000000D02*
X17125300Y29000000D01*
X32190000Y41750000D02*
X34350000Y41750000D01*
X50190000Y45150000D02*
X48975700Y45150000D01*
X48975700Y45150000D02*
X48975700Y44437300D01*
X48975700Y44437300D02*
X45000000Y40461600D01*
X52350000Y45150000D02*
X50190000Y45150000D01*
X71125300Y38350000D02*
X71923700Y38350000D01*
X71923700Y38350000D02*
X78491600Y31782100D01*
X70350000Y38350000D02*
X71125300Y38350000D01*
X16350000Y29000000D02*
X14190000Y29000000D01*
X70350000Y38350000D02*
X68190000Y38350000D01*
X88350000Y31550000D02*
X86190000Y31550000D01*
G04 #@! TO.N,ring_bottom*
X37650000Y7750000D02*
X36874700Y7750000D01*
X36874700Y7750000D02*
X33921700Y10703000D01*
X33921700Y10703000D02*
X33921700Y17503300D01*
X33921700Y17503300D02*
X32725000Y18700000D01*
X39810000Y7750000D02*
X37650000Y7750000D01*
G04 #@! TO.N,P19*
X44275000Y16500000D02*
X45900300Y16500000D01*
X46202000Y17460800D02*
X45900300Y17159100D01*
X45900300Y17159100D02*
X45900300Y16500000D01*
X44275000Y33500000D02*
X44275000Y35125300D01*
X44275000Y50500000D02*
X44275000Y48874700D01*
X44275000Y48874700D02*
X44274700Y48874400D01*
X44274700Y48874400D02*
X44274700Y35125600D01*
X44274700Y35125600D02*
X44275000Y35125300D01*
X44275000Y33500000D02*
X44275000Y16500000D01*
G04 #@! TO.N,ring_home*
X37650000Y24750000D02*
X36874700Y24750000D01*
X36874700Y24750000D02*
X33921700Y27703000D01*
X33921700Y27703000D02*
X33921700Y34503300D01*
X33921700Y34503300D02*
X32725000Y35700000D01*
X39810000Y24750000D02*
X37650000Y24750000D01*
G04 #@! TO.N,ring_top*
X37650000Y41750000D02*
X36874700Y41750000D01*
X36874700Y41750000D02*
X33921700Y44703000D01*
X33921700Y44703000D02*
X33921700Y51503300D01*
X33921700Y51503300D02*
X32725000Y52700000D01*
X39810000Y41750000D02*
X37650000Y41750000D01*
G04 #@! TO.N,middle_bottom*
X55650000Y11150000D02*
X54874700Y11150000D01*
X54874700Y11150000D02*
X51921700Y14103000D01*
X51921700Y14103000D02*
X51921700Y20903300D01*
X51921700Y20903300D02*
X50725000Y22100000D01*
X57810000Y11150000D02*
X55650000Y11150000D01*
G04 #@! TO.N,P18*
X62275000Y26842500D02*
X62275000Y23664900D01*
X62275000Y19900000D02*
X62275000Y23664900D01*
X62275000Y19900000D02*
X62275000Y-14414400D01*
X92390300Y-18697800D02*
X92390200Y-18697800D01*
X92390200Y-18697800D02*
X91856900Y-18164500D01*
X91856900Y-18164500D02*
X91856900Y-14715200D01*
X104880000Y20490000D02*
X104880000Y19937100D01*
X104880000Y19937100D02*
X102872900Y17930000D01*
X102872900Y17930000D02*
X101948200Y17930000D01*
X101948200Y17930000D02*
X100816500Y16798300D01*
X100816500Y16798300D02*
X100816500Y-5755600D01*
X100816500Y-5755600D02*
X91856900Y-14715200D01*
X91856900Y-20688500D02*
X92390300Y-18697800D01*
X62275000Y36900000D02*
X62275000Y26842500D01*
X62275000Y53900000D02*
X62275000Y36900000D01*
G04 #@! TO.N,middle_home*
X55650000Y28150000D02*
X54874700Y28150000D01*
X54874700Y28150000D02*
X51921700Y31103000D01*
X51921700Y31103000D02*
X51921700Y37903300D01*
X51921700Y37903300D02*
X50725000Y39100000D01*
X57810000Y28150000D02*
X55650000Y28150000D01*
G04 #@! TO.N,middle_top*
X55650000Y45150000D02*
X54874700Y45150000D01*
X54874700Y45150000D02*
X51921700Y48103000D01*
X51921700Y48103000D02*
X51921700Y54903300D01*
X51921700Y54903300D02*
X50725000Y56100000D01*
X57810000Y45150000D02*
X55650000Y45150000D01*
G04 #@! TO.N,index_bottom*
X73650000Y4350000D02*
X72874700Y4350000D01*
X72874700Y4350000D02*
X69921700Y7303000D01*
X69921700Y7303000D02*
X69921700Y14103300D01*
X69921700Y14103300D02*
X68725000Y15300000D01*
X75810000Y4350000D02*
X73650000Y4350000D01*
G04 #@! TO.N,P15*
X78613000Y36908600D02*
X78329800Y36908600D01*
X80275000Y15360800D02*
X80275000Y13100000D01*
X80275000Y30100000D02*
X80275000Y15360800D01*
X80275000Y30606000D02*
X80275000Y30100000D01*
X80275000Y30606000D02*
X80275000Y31725300D01*
X78613000Y36908600D02*
X78613000Y33387300D01*
X78613000Y33387300D02*
X80275000Y31725300D01*
X80275000Y47100000D02*
X80275000Y40221200D01*
X80275000Y40221200D02*
X78613000Y38559200D01*
X78613000Y38559200D02*
X78613000Y36908600D01*
X105273100Y-19235600D02*
X103634800Y-17597300D01*
X103634800Y-17597300D02*
X103634800Y16704800D01*
X103634800Y16704800D02*
X104880000Y17950000D01*
X109777000Y-23356500D02*
X109394000Y-23356500D01*
X109394000Y-23356500D02*
X105273100Y-19235600D01*
X109243600Y-25347200D02*
X109777000Y-23356500D01*
G04 #@! TO.N,index_home*
X73650000Y21350000D02*
X72874700Y21350000D01*
X72874700Y21350000D02*
X69921700Y24303000D01*
X69921700Y24303000D02*
X69921700Y31103300D01*
X69921700Y31103300D02*
X68725000Y32300000D01*
X75810000Y21350000D02*
X73650000Y21350000D01*
G04 #@! TO.N,index_top*
X73650000Y38350000D02*
X72874700Y38350000D01*
X72874700Y38350000D02*
X69921700Y41303000D01*
X69921700Y41303000D02*
X69921700Y48103300D01*
X69921700Y48103300D02*
X68725000Y49300000D01*
X75810000Y38350000D02*
X73650000Y38350000D01*
G04 #@! TO.N,inner_bottom*
X91650000Y-2450000D02*
X90874700Y-2450000D01*
X90874700Y-2450000D02*
X87921700Y503000D01*
X87921700Y503000D02*
X87921700Y7303300D01*
X87921700Y7303300D02*
X86725000Y8500000D01*
X93810000Y-2450000D02*
X91650000Y-2450000D01*
G04 #@! TO.N,P14*
X98275000Y27984400D02*
X98275000Y23300000D01*
X98275000Y38395400D02*
X98275000Y27984400D01*
X98275000Y27984400D02*
X98130900Y27984400D01*
X98275000Y15290000D02*
X98275000Y6300000D01*
X98275000Y23300000D02*
X98275000Y15290000D01*
X98275000Y15290000D02*
X98740200Y15290000D01*
X98275000Y40300000D02*
X98275000Y38395400D01*
G04 #@! TO.N,inner_home*
X87921700Y23567400D02*
X87921700Y24303300D01*
X87921700Y24303300D02*
X86725000Y25500000D01*
X90874700Y14550000D02*
X87921700Y17503000D01*
X87921700Y17503000D02*
X87921700Y23567400D01*
X91650000Y14550000D02*
X90874700Y14550000D01*
X93810000Y14550000D02*
X91650000Y14550000D01*
G04 #@! TO.N,inner_top*
X91650000Y31550000D02*
X90874700Y31550000D01*
X90874700Y31550000D02*
X87921700Y34503000D01*
X87921700Y34503000D02*
X87921700Y41303300D01*
X87921700Y41303300D02*
X86725000Y42500000D01*
X93810000Y31550000D02*
X91650000Y31550000D01*
G04 #@! TO.N,near_thumb*
X83193000Y-27425700D02*
X82204500Y-27160800D01*
X81269900Y-15574100D02*
X81269900Y-20413200D01*
X81269900Y-20413200D02*
X80850800Y-20832300D01*
X80850800Y-20832300D02*
X80850800Y-25083500D01*
X80850800Y-25083500D02*
X82204500Y-26437200D01*
X82204500Y-26437200D02*
X82204500Y-27160800D01*
X83193000Y-27425700D02*
X84181400Y-27690500D01*
X85279400Y-27984700D02*
X84475500Y-27984700D01*
X84475500Y-27984700D02*
X84181400Y-27690600D01*
X84181400Y-27690600D02*
X84181400Y-27690500D01*
G04 #@! TO.N,P7*
X77919000Y-26012500D02*
X76431700Y-25614000D01*
X76431700Y-25614000D02*
X76431700Y-24525200D01*
X76431700Y-24525200D02*
X76361200Y-24454700D01*
X76361200Y-24454700D02*
X76361200Y2962000D01*
X76361200Y2962000D02*
X82918700Y9519500D01*
X82918700Y9519500D02*
X82918700Y12602000D01*
X79017000Y-26306700D02*
X78213200Y-26306700D01*
X78213200Y-26306700D02*
X77919000Y-26012500D01*
X80005400Y-26571500D02*
X79017000Y-26306700D01*
G04 #@! TO.N,home_thumb*
X98656600Y-20232800D02*
X99608900Y-21185100D01*
X99608900Y-21185100D02*
X99608900Y-22905800D01*
G04 #@! TO.N,far_thumb*
X117966800Y-36743200D02*
X116978300Y-36478300D01*
X116043600Y-24891600D02*
X116043600Y-29730700D01*
X116043600Y-29730700D02*
X115570700Y-30203600D01*
X115570700Y-30203600D02*
X115570700Y-34347100D01*
X115570700Y-34347100D02*
X116978300Y-35754700D01*
X116978300Y-35754700D02*
X116978300Y-36478300D01*
X117966800Y-36743200D02*
X118955200Y-37008000D01*
X120053200Y-37302200D02*
X119249300Y-37302200D01*
X119249300Y-37302200D02*
X118955200Y-37008100D01*
X118955200Y-37008100D02*
X118955200Y-37008000D01*
D28*
G04 #@! TO.N,GND*
X115800000Y-5850000D02*
X115800000Y-4599700D01*
X104880000Y35730000D02*
X107000000Y33610000D01*
X107000000Y33610000D02*
X107000000Y5800000D01*
X115800000Y-4599700D02*
X107000000Y4200300D01*
X107000000Y4200300D02*
X107000000Y5800000D01*
X102380000Y31900000D02*
X102380000Y34440000D01*
X120120000Y30650000D02*
X120120000Y33190000D01*
X115800000Y-5850000D02*
X115800000Y-12450000D01*
D27*
G04 #@! TO.N,RST*
X104880000Y33190000D02*
X103581700Y31891700D01*
X103581700Y31891700D02*
X103581700Y21179500D01*
X103581700Y21179500D02*
X102872200Y20470000D01*
X102872200Y20470000D02*
X101884400Y20470000D01*
X101884400Y20470000D02*
X99803300Y18388900D01*
X99803300Y18388900D02*
X99803300Y9705900D01*
X99803300Y9705900D02*
X99915900Y9593300D01*
X99915900Y9593300D02*
X99915900Y2913000D01*
X99915900Y2913000D02*
X99571000Y2568100D01*
D28*
G04 #@! TO.N,VCC*
X111800000Y-5850000D02*
X111800000Y-3219000D01*
X111800000Y-3219000D02*
X105492000Y3089000D01*
X105492000Y3089000D02*
X105492000Y6412400D01*
X105492000Y6412400D02*
X106252600Y7173000D01*
X106252600Y7173000D02*
X106252600Y29277400D01*
X106252600Y29277400D02*
X104880000Y30650000D01*
X111800000Y-12450000D02*
X112300000Y-11950000D01*
X112300000Y-11950000D02*
X112300000Y-6350000D01*
X112300000Y-6350000D02*
X111800000Y-5850000D01*
D27*
G04 #@! TO.N,P0*
X118800000Y-5850000D02*
X118800000Y-4724700D01*
X118800000Y-4724700D02*
X119925300Y-3599400D01*
X119925300Y-3599400D02*
X119925300Y-755000D01*
X119925300Y-755000D02*
X120860700Y180400D01*
X120860700Y180400D02*
X120860700Y4601200D01*
X120860700Y4601200D02*
X120324600Y5137300D01*
X120324600Y5137300D02*
X120324600Y6956600D01*
X120324600Y6956600D02*
X118902800Y8378400D01*
X118902800Y8378400D02*
X118902800Y34512800D01*
X118902800Y34512800D02*
X120120000Y35730000D01*
X118800000Y-5850000D02*
X118800000Y-12450000D01*
D28*
G04 #@! TO.N,Bplus*
X107844300Y37845700D02*
X104880000Y40810000D01*
X112478200Y2049600D02*
X112478200Y3007900D01*
X112478200Y3007900D02*
X107844300Y7641800D01*
X107844300Y7641800D02*
X107844300Y37845700D01*
X107844300Y37845700D02*
X112058600Y42060000D01*
X112058600Y42060000D02*
X117620000Y42060000D01*
X113500000Y2049600D02*
X112478200Y2049600D01*
X114010900Y2049600D02*
X113500000Y2049600D01*
X114010900Y2049600D02*
X114521800Y2049600D01*
X115350000Y2049600D02*
X114521800Y2049600D01*
X117925000Y1800000D02*
X115599600Y1800000D01*
X115599600Y1800000D02*
X115350000Y2049600D01*
G04 #@! TO.N,Bminus*
X120120000Y40810000D02*
X120077500Y40852500D01*
X120077500Y40852500D02*
X116515800Y40852500D01*
X116515800Y40852500D02*
X112477200Y36813900D01*
X112477200Y36813900D02*
X112477200Y23273100D01*
X112477200Y23273100D02*
X113000000Y22750300D01*
X113000000Y21550000D02*
X113000000Y22750300D01*
X113000000Y21550000D02*
X111799700Y21550000D01*
X111594800Y22243800D02*
X111799700Y22038900D01*
X111799700Y22038900D02*
X111799700Y21550000D01*
G04 #@! TO.N,Braw*
X114698600Y4800000D02*
X114481800Y4800000D01*
X117925000Y4800000D02*
X114698600Y4800000D01*
X114698600Y4800000D02*
X114698600Y3050400D01*
X114481800Y4800000D02*
X114481800Y15580800D01*
X114481800Y15580800D02*
X113001800Y17060800D01*
X113000000Y17949900D02*
X113001800Y17948100D01*
X113001800Y17948100D02*
X113001800Y17060800D01*
X113000000Y18550000D02*
X113000000Y17949900D01*
X114481800Y4800000D02*
X113500000Y3818200D01*
X113500000Y3050400D02*
X113500000Y3818200D01*
G04 #@! TD*
M02*
