0
SECTION
2
HEADER
9
$INSUNITS
70
4
0
ENDSEC
0
SECTION
2
TABLES
0
TABLE
2
LTYPE
0
LTYPE
72
65
70
64
2
CONTINUOUS
3
______
73
0
40
0
0
ENDTAB
0
TABLE
2
LAYER
0
ENDTAB
0
ENDSEC
0
SECTION
2
ENTITIES
0
LINE
8
0
10
9
20
9
11
27
21
9
0
LINE
8
0
10
27
20
9
11
27
21
-9
0
LINE
8
0
10
27
20
-9
11
9
21
-9
0
LINE
8
0
10
9
20
-9
11
9
21
9
0
LINE
8
0
10
9
20
26
11
27
21
26
0
LINE
8
0
10
27
20
26
11
27
21
8
0
LINE
8
0
10
27
20
8
11
9
21
8
0
LINE
8
0
10
9
20
8
11
9
21
26
0
LINE
8
0
10
9
20
43
11
27
21
43
0
LINE
8
0
10
27
20
43
11
27
21
25
0
LINE
8
0
10
27
20
25
11
9
21
25
0
LINE
8
0
10
9
20
25
11
9
21
43
0
LINE
8
0
10
27
20
21.75
11
45
21
21.75
0
LINE
8
0
10
45
20
21.75
11
45
21
3.75
0
LINE
8
0
10
45
20
3.75
11
27
21
3.75
0
LINE
8
0
10
27
20
3.75
11
27
21
21.75
0
LINE
8
0
10
27
20
38.75
11
45
21
38.75
0
LINE
8
0
10
45
20
38.75
11
45
21
20.75
0
LINE
8
0
10
45
20
20.75
11
27
21
20.75
0
LINE
8
0
10
27
20
20.75
11
27
21
38.75
0
LINE
8
0
10
27
20
55.75
11
45
21
55.75
0
LINE
8
0
10
45
20
55.75
11
45
21
37.75
0
LINE
8
0
10
45
20
37.75
11
27
21
37.75
0
LINE
8
0
10
27
20
37.75
11
27
21
55.75
0
LINE
8
0
10
45
20
25.15
11
63
21
25.15
0
LINE
8
0
10
63
20
25.15
11
63
21
7.15
0
LINE
8
0
10
63
20
7.15
11
45
21
7.15
0
LINE
8
0
10
45
20
7.15
11
45
21
25.15
0
LINE
8
0
10
45
20
42.15
11
63
21
42.15
0
LINE
8
0
10
63
20
42.15
11
63
21
24.15
0
LINE
8
0
10
63
20
24.15
11
45
21
24.15
0
LINE
8
0
10
45
20
24.15
11
45
21
42.15
0
LINE
8
0
10
45
20
59.15
11
63
21
59.15
0
LINE
8
0
10
63
20
59.15
11
63
21
41.15
0
LINE
8
0
10
63
20
41.15
11
45
21
41.15
0
LINE
8
0
10
45
20
41.15
11
45
21
59.15
0
LINE
8
0
10
63
20
18.35
11
81
21
18.35
0
LINE
8
0
10
81
20
18.35
11
81
21
0.35
0
LINE
8
0
10
81
20
0.35
11
63
21
0.35
0
LINE
8
0
10
63
20
0.35
11
63
21
18.35
0
LINE
8
0
10
63
20
35.35
11
81
21
35.35
0
LINE
8
0
10
81
20
35.35
11
81
21
17.35
0
LINE
8
0
10
81
20
17.35
11
63
21
17.35
0
LINE
8
0
10
63
20
17.35
11
63
21
35.35
0
LINE
8
0
10
63
20
52.35
11
81
21
52.35
0
LINE
8
0
10
81
20
52.35
11
81
21
34.35
0
LINE
8
0
10
81
20
34.35
11
63
21
34.35
0
LINE
8
0
10
63
20
34.35
11
63
21
52.35
0
LINE
8
0
10
81
20
11.55
11
99
21
11.55
0
LINE
8
0
10
99
20
11.55
11
99
21
-6.45
0
LINE
8
0
10
99
20
-6.45
11
81
21
-6.45
0
LINE
8
0
10
81
20
-6.45
11
81
21
11.55
0
LINE
8
0
10
81
20
28.55
11
99
21
28.55
0
LINE
8
0
10
99
20
28.55
11
99
21
10.55
0
LINE
8
0
10
99
20
10.55
11
81
21
10.55
0
LINE
8
0
10
81
20
10.55
11
81
21
28.55
0
LINE
8
0
10
81
20
45.55
11
99
21
45.55
0
LINE
8
0
10
99
20
45.55
11
99
21
27.55
0
LINE
8
0
10
99
20
27.55
11
81
21
27.55
0
LINE
8
0
10
81
20
27.55
11
81
21
45.55
0
LINE
8
0
10
83.2487832
20
-9.5442222
11
97.0375832
21
-21.1143992
0
LINE
8
0
10
97.0375832
20
-21.1143992
11
85.4674062
21
-34.9031992
0
LINE
8
0
10
85.4674062
20
-34.9031992
11
71.6786062
21
-23.3330222
0
LINE
8
0
10
71.6786062
20
-23.3330222
11
83.2487832
21
-9.5442222
0
LINE
8
0
10
97.0375831
20
-21.1143992
11
110.8263831
21
-32.6845762
0
LINE
8
0
10
110.8263831
20
-32.6845762
11
99.2562061
21
-46.4733762
0
LINE
8
0
10
99.2562061
20
-46.4733762
11
85.4674061
21
-34.9031992
0
LINE
8
0
10
85.4674061
20
-34.9031992
11
97.0375831
21
-21.1143992
0
LINE
8
0
10
110.8263831
20
-32.6845762
11
124.6151831
21
-44.2547532
0
LINE
8
0
10
124.6151831
20
-44.2547532
11
113.0450061
21
-58.0435532
0
LINE
8
0
10
113.0450061
20
-58.0435532
11
99.2562061
21
-46.4733762
0
LINE
8
0
10
99.2562061
20
-46.4733762
11
110.8263831
21
-32.6845762
0
ENDSEC
0
EOF