0
SECTION
2
HEADER
9
$INSUNITS
70
4
0
ENDSEC
0
SECTION
2
TABLES
0
TABLE
2
LTYPE
0
LTYPE
72
65
70
64
2
CONTINUOUS
3
______
73
0
40
0
0
ENDTAB
0
TABLE
2
LAYER
0
ENDTAB
0
ENDSEC
0
SECTION
2
ENTITIES
0
LINE
8
0
10
9
20
9
11
27
21
9
0
LINE
8
0
10
27
20
9
11
27
21
-9
0
LINE
8
0
10
27
20
-9
11
9
21
-9
0
LINE
8
0
10
9
20
-9
11
9
21
9
0
LINE
8
0
10
9
20
26
11
27
21
26
0
LINE
8
0
10
27
20
26
11
27
21
8
0
LINE
8
0
10
27
20
8
11
9
21
8
0
LINE
8
0
10
9
20
8
11
9
21
26
0
LINE
8
0
10
9
20
43
11
27
21
43
0
LINE
8
0
10
27
20
43
11
27
21
25
0
LINE
8
0
10
27
20
25
11
9
21
25
0
LINE
8
0
10
9
20
25
11
9
21
43
0
LINE
8
0
10
27
20
21.75
11
45
21
21.75
0
LINE
8
0
10
45
20
21.75
11
45
21
3.75
0
LINE
8
0
10
45
20
3.75
11
27
21
3.75
0
LINE
8
0
10
27
20
3.75
11
27
21
21.75
0
LINE
8
0
10
27
20
38.75
11
45
21
38.75
0
LINE
8
0
10
45
20
38.75
11
45
21
20.75
0
LINE
8
0
10
45
20
20.75
11
27
21
20.75
0
LINE
8
0
10
27
20
20.75
11
27
21
38.75
0
LINE
8
0
10
27
20
55.75
11
45
21
55.75
0
LINE
8
0
10
45
20
55.75
11
45
21
37.75
0
LINE
8
0
10
45
20
37.75
11
27
21
37.75
0
LINE
8
0
10
27
20
37.75
11
27
21
55.75
0
LINE
8
0
10
45
20
25.15
11
63
21
25.15
0
LINE
8
0
10
63
20
25.15
11
63
21
7.15
0
LINE
8
0
10
63
20
7.15
11
45
21
7.15
0
LINE
8
0
10
45
20
7.15
11
45
21
25.15
0
LINE
8
0
10
45
20
42.15
11
63
21
42.15
0
LINE
8
0
10
63
20
42.15
11
63
21
24.15
0
LINE
8
0
10
63
20
24.15
11
45
21
24.15
0
LINE
8
0
10
45
20
24.15
11
45
21
42.15
0
LINE
8
0
10
45
20
59.15
11
63
21
59.15
0
LINE
8
0
10
63
20
59.15
11
63
21
41.15
0
LINE
8
0
10
63
20
41.15
11
45
21
41.15
0
LINE
8
0
10
45
20
41.15
11
45
21
59.15
0
LINE
8
0
10
63
20
18.35
11
81
21
18.35
0
LINE
8
0
10
81
20
18.35
11
81
21
0.35
0
LINE
8
0
10
81
20
0.35
11
63
21
0.35
0
LINE
8
0
10
63
20
0.35
11
63
21
18.35
0
LINE
8
0
10
63
20
35.35
11
81
21
35.35
0
LINE
8
0
10
81
20
35.35
11
81
21
17.35
0
LINE
8
0
10
81
20
17.35
11
63
21
17.35
0
LINE
8
0
10
63
20
17.35
11
63
21
35.35
0
LINE
8
0
10
63
20
52.35
11
81
21
52.35
0
LINE
8
0
10
81
20
52.35
11
81
21
34.35
0
LINE
8
0
10
81
20
34.35
11
63
21
34.35
0
LINE
8
0
10
63
20
34.35
11
63
21
52.35
0
LINE
8
0
10
81
20
11.55
11
99
21
11.55
0
LINE
8
0
10
99
20
11.55
11
99
21
-6.45
0
LINE
8
0
10
99
20
-6.45
11
81
21
-6.45
0
LINE
8
0
10
81
20
-6.45
11
81
21
11.55
0
LINE
8
0
10
81
20
28.55
11
99
21
28.55
0
LINE
8
0
10
99
20
28.55
11
99
21
10.55
0
LINE
8
0
10
99
20
10.55
11
81
21
10.55
0
LINE
8
0
10
81
20
10.55
11
81
21
28.55
0
LINE
8
0
10
81
20
45.55
11
99
21
45.55
0
LINE
8
0
10
99
20
45.55
11
99
21
27.55
0
LINE
8
0
10
99
20
27.55
11
81
21
27.55
0
LINE
8
0
10
81
20
27.55
11
81
21
45.55
0
LINE
8
0
10
76.5293333
20
-11.1462981
11
93.9159981
21
-15.8050409
0
LINE
8
0
10
93.9159981
20
-15.8050409
11
89.2572553
21
-33.1917057
0
LINE
8
0
10
89.2572553
20
-33.1917057
11
71.8705905
21
-28.5329629
0
LINE
8
0
10
71.8705905
20
-28.5329629
11
76.5293333
21
-11.1462981
0
LINE
8
0
10
93.9159982
20
-15.8050409
11
111.302663
21
-20.4637837
0
LINE
8
0
10
111.302663
20
-20.4637837
11
106.6439202
21
-37.8504485
0
LINE
8
0
10
106.6439202
20
-37.8504485
11
89.2572554
21
-33.1917057
0
LINE
8
0
10
89.2572554
20
-33.1917057
11
93.9159982
21
-15.8050409
0
LINE
8
0
10
111.3026631
20
-20.4637837
11
128.6893279
21
-25.1225265
0
LINE
8
0
10
128.6893279
20
-25.1225265
11
124.0305851
21
-42.5091913
0
LINE
8
0
10
124.0305851
20
-42.5091913
11
106.6439203
21
-37.8504485
0
LINE
8
0
10
106.6439203
20
-37.8504485
11
111.3026631
21
-20.4637837
0
ENDSEC
0
EOF