G04 #@! TF.GenerationSoftware,KiCad,Pcbnew,5.1.5+dfsg1-2build2*
G04 #@! TF.CreationDate,2022-04-19T07:05:37+00:00*
G04 #@! TF.ProjectId,bottom_plate,626f7474-6f6d-45f7-906c-6174652e6b69,v1.0.0*
G04 #@! TF.SameCoordinates,Original*
G04 #@! TF.FileFunction,Profile,NP*
%FSLAX46Y46*%
G04 Gerber Fmt 4.6, Leading zero omitted, Abs format (unit mm)*
G04 Created by KiCad (PCBNEW 5.1.5+dfsg1-2build2) date 2022-04-19 07:05:37*
%MOMM*%
%LPD*%
G04 APERTURE LIST*
G04 #@! TA.AperFunction,Profile*
%ADD10C,0.150000*%
G04 #@! TD*
G04 APERTURE END LIST*
D10*
X10000000Y-9500000D02*
X26000000Y-9500000D01*
X8000000Y-7500000D02*
X8000000Y41500000D01*
X10000000Y-9500000D02*
G75*
G02X8000000Y-7500000I0J2000000D01*
G01*
X26000000Y43500000D02*
X10000000Y43500000D01*
X8000000Y41500000D02*
G75*
G02X10000000Y43500000I2000000J0D01*
G01*
X44000000Y56250000D02*
X28000000Y56250000D01*
X26000000Y54250000D02*
G75*
G02X28000000Y56250000I2000000J0D01*
G01*
X26000000Y54250000D02*
X26000000Y43500000D01*
X64000000Y52850000D02*
X64000000Y57650000D01*
X62000000Y59650000D02*
G75*
G02X64000000Y57650000I0J-2000000D01*
G01*
X62000000Y59650000D02*
X46000000Y59650000D01*
X44000000Y57650000D02*
G75*
G02X46000000Y59650000I2000000J0D01*
G01*
X44000000Y57650000D02*
X44000000Y56250000D01*
X82000000Y46050000D02*
X82000000Y50850000D01*
X80000000Y52850000D02*
G75*
G02X82000000Y50850000I0J-2000000D01*
G01*
X80000000Y52850000D02*
X64000000Y52850000D01*
X98000000Y46050000D02*
G75*
G02X99994367Y44200000I0J-2000000D01*
G01*
X98000000Y46050000D02*
X82000000Y46050000D01*
X72707107Y-29274745D02*
X122935250Y-42733335D01*
X72707107Y-29274745D02*
G75*
G02X72197860Y-29059141I517638J1931852D01*
G01*
X125384739Y-41319122D02*
G75*
G02X122935250Y-42733335I-1931851J517638D01*
G01*
X125384740Y-41319122D02*
X129267025Y-26830234D01*
X127852812Y-24380745D02*
G75*
G02X129267025Y-26830234I-517638J-1931851D01*
G01*
X122000000Y-20297692D02*
X127852812Y-24380745D01*
X72197860Y-29059141D02*
X26000000Y-9500000D01*
X122000000Y-20297692D02*
X122000000Y42200000D01*
X120000000Y44200000D02*
G75*
G02X122000000Y42200000I0J-2000000D01*
G01*
X120000000Y44200000D02*
X99994367Y44200000D01*
X28050000Y29750000D02*
G75*
G03X28050000Y29750000I-1050000J0D01*
G01*
X28050000Y0D02*
G75*
G03X28050000Y0I-1050000J0D01*
G01*
X82050000Y36550000D02*
G75*
G03X82050000Y36550000I-1050000J0D01*
G01*
X73050000Y-8670000D02*
G75*
G03X73050000Y-8670000I-1050000J0D01*
G01*
X109153958Y-28924179D02*
G75*
G03X109153958Y-28924179I-1050000J0D01*
G01*
M02*
