0
SECTION
2
HEADER
9
$INSUNITS
70
4
0
ENDSEC
0
SECTION
2
TABLES
0
TABLE
2
LTYPE
0
LTYPE
72
65
70
64
2
CONTINUOUS
3
______
73
0
40
0
0
ENDTAB
0
TABLE
2
LAYER
0
ENDTAB
0
ENDSEC
0
SECTION
2
ENTITIES
0
LINE
8
0
10
10
20
-8.5
11
26
21
-8.5
0
ARC
8
0
10
26
20
-7.5
40
1
50
270
51
360
0
LINE
8
0
10
27
20
-7.5
11
27
21
5.25
0
ARC
8
0
10
26
20
7.5
40
1
50
0
51
90
0
ARC
8
0
10
10
20
7.5
40
1
50
90
51
180
0
LINE
8
0
10
9
20
7.5
11
9
21
-7.5
0
ARC
8
0
10
10
20
-7.5
40
1
50
180
51
270
0
ARC
8
0
10
26
20
9.5
40
1
50
270
51
360
0
LINE
8
0
10
27
20
20.25
11
27
21
22.25
0
ARC
8
0
10
26
20
24.5
40
1
50
0
51
90
0
ARC
8
0
10
10
20
24.5
40
1
50
90
51
180
0
LINE
8
0
10
9
20
24.5
11
9
21
9.5
0
ARC
8
0
10
10
20
9.5
40
1
50
180
51
270
0
ARC
8
0
10
26
20
26.5
40
1
50
270
51
360
0
LINE
8
0
10
27
20
37.25
11
27
21
39.25
0
ARC
8
0
10
26
20
41.5
40
1
50
0
51
90
0
LINE
8
0
10
26
20
42.5
11
10
21
42.5
0
ARC
8
0
10
10
20
41.5
40
1
50
90
51
180
0
LINE
8
0
10
9
20
41.5
11
9
21
26.5
0
ARC
8
0
10
10
20
26.5
40
1
50
180
51
270
0
LINE
8
0
10
28
20
4.25
11
44
21
4.25
0
ARC
8
0
10
44
20
5.25
40
1
50
270
51
360
0
LINE
8
0
10
45
20
5.25
11
45
21
8.65
0
ARC
8
0
10
44
20
20.25
40
1
50
0
51
90
0
ARC
8
0
10
28
20
20.25
40
1
50
90
51
180
0
LINE
8
0
10
27
20
9.5
11
27
21
7.5
0
ARC
8
0
10
28
20
5.25
40
1
50
180
51
270
0
ARC
8
0
10
44
20
22.25
40
1
50
270
51
360
0
LINE
8
0
10
45
20
23.65
11
45
21
25.65
0
ARC
8
0
10
44
20
37.25
40
1
50
0
51
90
0
ARC
8
0
10
28
20
37.25
40
1
50
90
51
180
0
LINE
8
0
10
27
20
26.5
11
27
21
24.5
0
ARC
8
0
10
28
20
22.25
40
1
50
180
51
270
0
ARC
8
0
10
44
20
39.25
40
1
50
270
51
360
0
LINE
8
0
10
45
20
40.65
11
45
21
42.65
0
ARC
8
0
10
44
20
54.25
40
1
50
0
51
90
0
LINE
8
0
10
44
20
55.25
11
28
21
55.25
0
ARC
8
0
10
28
20
54.25
40
1
50
90
51
180
0
LINE
8
0
10
27
20
54.25
11
27
21
41.5
0
ARC
8
0
10
28
20
39.25
40
1
50
180
51
270
0
LINE
8
0
10
46
20
7.65
11
62
21
7.65
0
ARC
8
0
10
62
20
8.65
40
1
50
270
51
360
0
LINE
8
0
10
63
20
16.85
11
63
21
18.85
0
ARC
8
0
10
62
20
23.65
40
1
50
0
51
90
0
ARC
8
0
10
46
20
23.65
40
1
50
90
51
180
0
LINE
8
0
10
45
20
22.25
11
45
21
20.25
0
ARC
8
0
10
46
20
8.65
40
1
50
180
51
270
0
ARC
8
0
10
62
20
25.65
40
1
50
270
51
360
0
LINE
8
0
10
63
20
33.85
11
63
21
35.85
0
ARC
8
0
10
62
20
40.65
40
1
50
0
51
90
0
ARC
8
0
10
46
20
40.65
40
1
50
90
51
180
0
LINE
8
0
10
45
20
39.25
11
45
21
37.25
0
ARC
8
0
10
46
20
25.65
40
1
50
180
51
270
0
ARC
8
0
10
62
20
42.65
40
1
50
270
51
360
0
LINE
8
0
10
63
20
50.85
11
63
21
57.65
0
ARC
8
0
10
62
20
57.65
40
1
50
0
51
90
0
LINE
8
0
10
62
20
58.65
11
46
21
58.65
0
ARC
8
0
10
46
20
57.65
40
1
50
90
51
180
0
LINE
8
0
10
45
20
57.65
11
45
21
54.25
0
ARC
8
0
10
46
20
42.65
40
1
50
180
51
270
0
LINE
8
0
10
64
20
0.85
11
80
21
0.85
0
ARC
8
0
10
80
20
1.85
40
1
50
270
51
360
0
LINE
8
0
10
81
20
10.05
11
81
21
12.05
0
ARC
8
0
10
80
20
16.85
40
1
50
0
51
90
0
ARC
8
0
10
64
20
16.85
40
1
50
90
51
180
0
LINE
8
0
10
63
20
8.65
11
63
21
1.85
0
ARC
8
0
10
64
20
1.85
40
1
50
180
51
270
0
ARC
8
0
10
80
20
18.85
40
1
50
270
51
360
0
LINE
8
0
10
81
20
27.05
11
81
21
29.05
0
ARC
8
0
10
80
20
33.85
40
1
50
0
51
90
0
ARC
8
0
10
64
20
33.85
40
1
50
90
51
180
0
LINE
8
0
10
63
20
25.65
11
63
21
23.65
0
ARC
8
0
10
64
20
18.85
40
1
50
180
51
270
0
ARC
8
0
10
80
20
35.85
40
1
50
270
51
360
0
LINE
8
0
10
81
20
44.05
11
81
21
50.85
0
ARC
8
0
10
80
20
50.85
40
1
50
0
51
90
0
LINE
8
0
10
80
20
51.85
11
64
21
51.85
0
ARC
8
0
10
64
20
50.85
40
1
50
90
51
180
0
LINE
8
0
10
63
20
42.65
11
63
21
40.65
0
ARC
8
0
10
64
20
35.85
40
1
50
180
51
270
0
LINE
8
0
10
82
20
-5.95
11
98
21
-5.95
0
ARC
8
0
10
98
20
-4.95
40
1
50
270
51
360
0
LINE
8
0
10
99
20
-4.95
11
99
21
10.05
0
ARC
8
0
10
98
20
10.05
40
1
50
0
51
90
0
ARC
8
0
10
82
20
10.05
40
1
50
90
51
180
0
LINE
8
0
10
81
20
1.85
11
81
21
-4.95
0
ARC
8
0
10
82
20
-4.95
40
1
50
180
51
270
0
ARC
8
0
10
98
20
12.05
40
1
50
270
51
360
0
LINE
8
0
10
99
20
12.05
11
99
21
27.05
0
ARC
8
0
10
98
20
27.05
40
1
50
0
51
90
0
ARC
8
0
10
82
20
27.05
40
1
50
90
51
180
0
LINE
8
0
10
81
20
18.85
11
81
21
16.85
0
ARC
8
0
10
82
20
12.05
40
1
50
180
51
270
0
ARC
8
0
10
98
20
29.05
40
1
50
270
51
360
0
LINE
8
0
10
99
20
29.05
11
99
21
44.05
0
ARC
8
0
10
98
20
44.05
40
1
50
0
51
90
0
LINE
8
0
10
98
20
45.05
11
82
21
45.05
0
ARC
8
0
10
82
20
44.05
40
1
50
90
51
180
0
LINE
8
0
10
81
20
35.85
11
81
21
33.85
0
ARC
8
0
10
82
20
29.05
40
1
50
180
51
270
0
LINE
8
0
10
72.9659258
20
-28.3088191
11
88.420739
21
-32.4499238
0
ARC
8
0
10
88.6795581
20
-31.483998
40
1
50
255
51
345
0
ARC
8
0
10
92.5618437
20
-16.9951106
40
1
50
345
51
75
0
LINE
8
0
10
92.8206628
20
-16.0291847
11
77.3658496
21
-11.88808
0
ARC
8
0
10
77.1070305
20
-12.8540058
40
1
50
75
51
165
0
LINE
8
0
10
76.1411047
20
-12.5951868
11
72.258819
21
-27.0840742
0
ARC
8
0
10
73.2247449
20
-27.3428932
40
1
50
165
51
255
0
LINE
8
0
10
90.3525907
20
-32.9675619
11
105.8074039
21
-37.1086666
0
ARC
8
0
10
106.066223
20
-36.1427408
40
1
50
255
51
345
0
ARC
8
0
10
109.9485086
20
-21.6538534
40
1
50
345
51
75
0
LINE
8
0
10
110.2073277
20
-20.6879275
11
94.7525145
21
-16.5468228
0
ARC
8
0
10
94.4936954
20
-17.5127486
40
1
50
75
51
165
0
ARC
8
0
10
90.6114098
20
-32.001636
40
1
50
165
51
255
0
LINE
8
0
10
107.7392556
20
-37.6263047
11
123.1940688
21
-41.7674094
0
ARC
8
0
10
123.4528879
20
-40.8014836
40
1
50
255
51
345
0
LINE
8
0
10
124.4188137
20
-41.0603026
11
128.3010994
21
-26.5714152
0
ARC
8
0
10
127.3351735
20
-26.3125962
40
1
50
345
51
75
0
LINE
8
0
10
127.5939926
20
-25.3466703
11
112.1391794
21
-21.2055656
0
ARC
8
0
10
111.8803603
20
-22.1714914
40
1
50
75
51
165
0
ARC
8
0
10
107.9980747
20
-36.6603788
40
1
50
165
51
255
0
ENDSEC
0
EOF