0
SECTION
2
HEADER
9
$INSUNITS
70
4
0
ENDSEC
0
SECTION
2
TABLES
0
TABLE
2
LTYPE
0
LTYPE
72
65
70
64
2
CONTINUOUS
3
______
73
0
40
0
0
ENDTAB
0
TABLE
2
LAYER
0
ENDTAB
0
ENDSEC
0
SECTION
2
ENTITIES
0
LINE
8
0
10
10
20
-9.5
11
26
21
-9.5
0
LINE
8
0
10
8
20
-7.5
11
8
21
41.5
0
ARC
8
0
10
10
20
-7.5
40
2
50
180
51
270
0
LINE
8
0
10
26
20
43.5
11
10
21
43.5
0
ARC
8
0
10
10
20
41.5
40
2
50
90
51
180
0
LINE
8
0
10
44
20
56.25
11
28
21
56.25
0
ARC
8
0
10
28
20
54.25
40
2
50
90
51
180
0
LINE
8
0
10
26
20
54.25
11
26
21
43.5
0
LINE
8
0
10
64
20
52.85
11
64
21
57.65
0
ARC
8
0
10
62
20
57.65
40
2
50
0
51
90
0
LINE
8
0
10
62
20
59.65
11
46
21
59.65
0
ARC
8
0
10
46
20
57.65
40
2
50
90
51
180
0
LINE
8
0
10
44
20
57.65
11
44
21
56.25
0
LINE
8
0
10
82
20
46.05
11
82
21
50.85
0
ARC
8
0
10
80
20
50.85
40
2
50
0
51
90
0
LINE
8
0
10
80
20
52.85
11
64
21
52.85
0
LINE
8
0
10
100
20
-4.95
11
100
21
44.05
0
ARC
8
0
10
98
20
44.05
40
2
50
0
51
90
0
LINE
8
0
10
98
20
46.05
11
82
21
46.05
0
LINE
8
0
10
72.7071068
20
-29.2747449
11
122.9352498
21
-42.7333352
0
ARC
8
0
10
73.2247449
20
-27.3428932
40
2
50
239.1065835
51
255
0
ARC
8
0
10
123.4528879
20
-40.8014836
40
2
50
255
51
345
0
LINE
8
0
10
125.3847395
20
-41.3191216
11
129.2670252
21
-26.8302343
0
ARC
8
0
10
127.3351735
20
-26.3125962
40
2
50
345
51
75
0
LINE
8
0
10
100
20
-4.95
11
127.8528116
21
-24.3807445
0
LINE
8
0
10
72.1978596
20
-29.059141
11
26
21
-9.5
0
LINE
8
0
10
11
20
-7
11
25
21
-7
0
LINE
8
0
10
25
20
-7
11
25
21
7
0
LINE
8
0
10
25
20
7
11
11
21
7
0
LINE
8
0
10
11
20
7
11
11
21
-7
0
LINE
8
0
10
11
20
10
11
25
21
10
0
LINE
8
0
10
25
20
10
11
25
21
24
0
LINE
8
0
10
25
20
24
11
11
21
24
0
LINE
8
0
10
11
20
24
11
11
21
10
0
LINE
8
0
10
11
20
27
11
25
21
27
0
LINE
8
0
10
25
20
27
11
25
21
41
0
LINE
8
0
10
25
20
41
11
11
21
41
0
LINE
8
0
10
11
20
41
11
11
21
27
0
LINE
8
0
10
29
20
5.75
11
43
21
5.75
0
LINE
8
0
10
43
20
5.75
11
43
21
19.75
0
LINE
8
0
10
43
20
19.75
11
29
21
19.75
0
LINE
8
0
10
29
20
19.75
11
29
21
5.75
0
LINE
8
0
10
29
20
22.75
11
43
21
22.75
0
LINE
8
0
10
43
20
22.75
11
43
21
36.75
0
LINE
8
0
10
43
20
36.75
11
29
21
36.75
0
LINE
8
0
10
29
20
36.75
11
29
21
22.75
0
LINE
8
0
10
29
20
39.75
11
43
21
39.75
0
LINE
8
0
10
43
20
39.75
11
43
21
53.75
0
LINE
8
0
10
43
20
53.75
11
29
21
53.75
0
LINE
8
0
10
29
20
53.75
11
29
21
39.75
0
LINE
8
0
10
47
20
9.15
11
61
21
9.15
0
LINE
8
0
10
61
20
9.15
11
61
21
23.15
0
LINE
8
0
10
61
20
23.15
11
47
21
23.15
0
LINE
8
0
10
47
20
23.15
11
47
21
9.15
0
LINE
8
0
10
47
20
26.15
11
61
21
26.15
0
LINE
8
0
10
61
20
26.15
11
61
21
40.15
0
LINE
8
0
10
61
20
40.15
11
47
21
40.15
0
LINE
8
0
10
47
20
40.15
11
47
21
26.15
0
LINE
8
0
10
47
20
43.15
11
61
21
43.15
0
LINE
8
0
10
61
20
43.15
11
61
21
57.15
0
LINE
8
0
10
61
20
57.15
11
47
21
57.15
0
LINE
8
0
10
47
20
57.15
11
47
21
43.15
0
LINE
8
0
10
65
20
2.35
11
79
21
2.35
0
LINE
8
0
10
79
20
2.35
11
79
21
16.35
0
LINE
8
0
10
79
20
16.35
11
65
21
16.35
0
LINE
8
0
10
65
20
16.35
11
65
21
2.35
0
LINE
8
0
10
65
20
19.35
11
79
21
19.35
0
LINE
8
0
10
79
20
19.35
11
79
21
33.35
0
LINE
8
0
10
79
20
33.35
11
65
21
33.35
0
LINE
8
0
10
65
20
33.35
11
65
21
19.35
0
LINE
8
0
10
65
20
36.35
11
79
21
36.35
0
LINE
8
0
10
79
20
36.35
11
79
21
50.35
0
LINE
8
0
10
79
20
50.35
11
65
21
50.35
0
LINE
8
0
10
65
20
50.35
11
65
21
36.35
0
LINE
8
0
10
83
20
-4.45
11
97
21
-4.45
0
LINE
8
0
10
97
20
-4.45
11
97
21
9.55
0
LINE
8
0
10
97
20
9.55
11
83
21
9.55
0
LINE
8
0
10
83
20
9.55
11
83
21
-4.45
0
LINE
8
0
10
83
20
12.55
11
97
21
12.55
0
LINE
8
0
10
97
20
12.55
11
97
21
26.55
0
LINE
8
0
10
97
20
26.55
11
83
21
26.55
0
LINE
8
0
10
83
20
26.55
11
83
21
12.55
0
LINE
8
0
10
83
20
29.55
11
97
21
29.55
0
LINE
8
0
10
97
20
29.55
11
97
21
43.55
0
LINE
8
0
10
97
20
43.55
11
83
21
43.55
0
LINE
8
0
10
83
20
43.55
11
83
21
29.55
0
LINE
8
0
10
74.3200802
20
-27.1187494
11
87.8430418
21
-30.742216
0
LINE
8
0
10
87.8430418
20
-30.742216
11
91.4665084
21
-17.2192544
0
LINE
8
0
10
91.4665084
20
-17.2192544
11
77.9435468
21
-13.5957878
0
LINE
8
0
10
77.9435468
20
-13.5957878
11
74.3200802
21
-27.1187494
0
LINE
8
0
10
91.7067451
20
-31.7774922
11
105.2297067
21
-35.4009588
0
LINE
8
0
10
105.2297067
20
-35.4009588
11
108.8531733
21
-21.8779972
0
LINE
8
0
10
108.8531733
20
-21.8779972
11
95.3302117
21
-18.2545306
0
LINE
8
0
10
95.3302117
20
-18.2545306
11
91.7067451
21
-31.7774922
0
LINE
8
0
10
109.09341
20
-36.436235
11
122.6163716
21
-40.0597016
0
LINE
8
0
10
122.6163716
20
-40.0597016
11
126.2398382
21
-26.53674
0
LINE
8
0
10
126.2398382
20
-26.53674
11
112.7168766
21
-22.9132734
0
LINE
8
0
10
112.7168766
20
-22.9132734
11
109.09341
21
-36.436235
0
CIRCLE
8
0
10
27
20
29.75
40
1.05
0
CIRCLE
8
0
10
27
20
0
40
1.05
0
CIRCLE
8
0
10
81
20
36.55
40
1.05
0
CIRCLE
8
0
10
72
20
-8.67
40
1.05
0
CIRCLE
8
0
10
108.1039584
20
-28.924179
40
1.05
0
ENDSEC
0
EOF