0
SECTION
2
HEADER
9
$INSUNITS
70
4
0
ENDSEC
0
SECTION
2
TABLES
0
TABLE
2
LTYPE
0
LTYPE
72
65
70
64
2
CONTINUOUS
3
______
73
0
40
0
0
ENDTAB
0
TABLE
2
LAYER
0
ENDTAB
0
ENDSEC
0
SECTION
2
ENTITIES
0
LINE
8
0
10
10
20
-9.5
11
26
21
-9.5
0
ARC
8
0
10
26
20
-7.5
40
2
50
270
51
360
0
LINE
8
0
10
28
20
-7.5
11
28
21
3.25
0
ARC
8
0
10
10
20
7.5
40
2
50
149.9999999
51
180
0
LINE
8
0
10
8
20
7.5
11
8
21
-7.5
0
ARC
8
0
10
10
20
-7.5
40
2
50
180
51
270
0
ARC
8
0
10
10
20
24.5
40
2
50
149.9999999
51
180
0
LINE
8
0
10
8
20
24.5
11
8
21
9.5
0
ARC
8
0
10
10
20
9.5
40
2
50
180
51
210.0000001
0
LINE
8
0
10
26
20
43.5
11
10
21
43.5
0
ARC
8
0
10
10
20
41.5
40
2
50
90
51
180
0
LINE
8
0
10
8
20
41.5
11
8
21
26.5
0
ARC
8
0
10
10
20
26.5
40
2
50
180
51
210.0000001
0
LINE
8
0
10
28
20
3.25
11
44
21
3.25
0
ARC
8
0
10
44
20
5.25
40
2
50
270
51
360
0
LINE
8
0
10
46
20
5.25
11
46
21
6.65
0
LINE
8
0
10
44
20
56.25
11
28
21
56.25
0
ARC
8
0
10
28
20
54.25
40
2
50
90
51
180
0
LINE
8
0
10
26
20
54.25
11
26
21
43.5
0
LINE
8
0
10
46
20
6.65
11
62
21
6.65
0
LINE
8
0
10
64
20
52.85
11
64
21
57.65
0
ARC
8
0
10
62
20
57.65
40
2
50
0
51
90
0
LINE
8
0
10
62
20
59.65
11
46
21
59.65
0
ARC
8
0
10
46
20
57.65
40
2
50
90
51
180
0
LINE
8
0
10
44
20
57.65
11
44
21
56.25
0
LINE
8
0
10
64
20
-0.15
11
80
21
-0.15
0
LINE
8
0
10
62
20
6.65
11
62
21
1.85
0
ARC
8
0
10
64
20
1.85
40
2
50
180
51
270
0
LINE
8
0
10
82
20
46.05
11
82
21
50.85
0
ARC
8
0
10
80
20
50.85
40
2
50
0
51
90
0
LINE
8
0
10
80
20
52.85
11
64
21
52.85
0
LINE
8
0
10
82
20
-6.95
11
98
21
-6.95
0
ARC
8
0
10
98
20
-4.95
40
2
50
270
51
360
0
LINE
8
0
10
100
20
-4.95
11
100
21
10.05
0
ARC
8
0
10
98
20
10.05
40
2
50
0
51
30.0000001
0
LINE
8
0
10
80
20
-0.15
11
80
21
-4.95
0
ARC
8
0
10
82
20
-4.95
40
2
50
180
51
270
0
ARC
8
0
10
98
20
12.05
40
2
50
329.9999999
51
360
0
LINE
8
0
10
100
20
12.05
11
100
21
27.05
0
ARC
8
0
10
98
20
27.05
40
2
50
0
51
30.0000001
0
ARC
8
0
10
98
20
29.05
40
2
50
329.9999999
51
360
0
LINE
8
0
10
100
20
29.05
11
100
21
44.05
0
ARC
8
0
10
98
20
44.05
40
2
50
0
51
90
0
LINE
8
0
10
98
20
46.05
11
82
21
46.05
0
LINE
8
0
10
72.7071068
20
-29.2747449
11
88.16192
21
-33.4158496
0
ARC
8
0
10
88.6795581
20
-31.483998
40
2
50
255
51
285.0000034
0
ARC
8
0
10
92.5618437
20
-16.9951106
40
2
50
405.000002
51
75
0
LINE
8
0
10
93.0794818
20
-15.0632589
11
77.6246686
21
-10.9221542
0
ARC
8
0
10
77.1070305
20
-12.8540058
40
2
50
75
51
165
0
LINE
8
0
10
75.1751789
20
-12.3363678
11
71.2928932
21
-26.8252551
0
ARC
8
0
10
73.2247449
20
-27.3428932
40
2
50
165
51
255
0
LINE
8
0
10
90.0937717
20
-33.9334877
11
105.5485849
21
-38.0745924
0
ARC
8
0
10
106.066223
20
-36.1427408
40
2
50
255
51
285.0000034
0
ARC
8
0
10
109.9485086
20
-21.6538534
40
2
50
405.000002
51
75
0
LINE
8
0
10
110.4661467
20
-19.7220017
11
95.0113335
21
-15.580897
0
ARC
8
0
10
94.4936954
20
-17.5127486
40
2
50
75
51
105.0000034
0
ARC
8
0
10
90.6114098
20
-32.001636
40
2
50
225.000002
51
255
0
LINE
8
0
10
107.4804366
20
-38.5922305
11
122.9352498
21
-42.7333352
0
ARC
8
0
10
123.4528879
20
-40.8014836
40
2
50
255
51
345
0
LINE
8
0
10
125.3847395
20
-41.3191216
11
129.2670252
21
-26.8302343
0
ARC
8
0
10
127.3351735
20
-26.3125962
40
2
50
345
51
75
0
LINE
8
0
10
127.8528116
20
-24.3807445
11
112.3979984
21
-20.2396398
0
ARC
8
0
10
111.8803603
20
-22.1714914
40
2
50
75
51
105.0000034
0
ARC
8
0
10
107.9980747
20
-36.6603788
40
2
50
225.000002
51
255
0
ENDSEC
0
EOF